<svg width="279" height="48" viewBox="0 0 279 48" fill="none" xmlns="http://www.w3.org/2000/svg">
<g opacity="0.9">
<path d="M42.3948 17.3422L26.0381 25.8061V1.58545L50.3879 13.6691L42.3948 17.3422Z" fill="#979797"/>
<path d="M26.0383 24.7414V1.58545L1.68848 13.6692L25.509 25.327" fill="#A4A4A4"/>
<path d="M26.0383 45.9814L1.68848 33.8444V13.6694L26.0383 25.8064V45.9814Z" fill="#979797"/>
<path d="M50.3879 33.8444V13.6694L26.0381 25.8064V45.9814" fill="#A4A4A4"/>
<path d="M26.0381 25.8063L49.7527 13.9888" stroke="white" stroke-width="3.2289" stroke-miterlimit="10" stroke-linecap="round"/>
<path d="M1.68848 13.6694L26.0383 25.8064" stroke="white" stroke-width="3.2289" stroke-miterlimit="10"/>
<path d="M26.0381 2.11768V45.7148" stroke="white" stroke-width="3.2289" stroke-miterlimit="10" stroke-linecap="round"/>
<path d="M21.2734 22.7719L26.0375 20.5361L30.6428 22.7719L26.0375 25.0076L21.2734 22.7719Z" fill="white"/>
<path d="M26.0371 21.3348L28.9485 22.772L26.0371 24.2093L23.0198 22.772L26.0371 21.3348ZM26.0371 19.6846L19.5791 22.772L26.0371 25.8595L32.3363 22.772L26.0371 19.6846Z" fill="white"/>
<path d="M25.8792 1.79848L50.2819 14.0419L50.229 33.8442L26.038 45.9812L1.68815 33.8442V13.6693L25.8792 1.79848ZM25.8792 1L25.5616 1.1597L1.37054 13.0837L1 13.2966V13.7225V33.8442V34.2701L1.37054 34.483L25.7204 46.62L26.038 46.7797L26.3026 46.62L50.4937 34.483L50.8642 34.2701V33.8442L50.9171 14.0419V13.616L50.5466 13.4031L26.1438 1.1597L25.8792 1Z" fill="white"/>
<path d="M83.7365 11.2737H82.8895C82.2543 7.17479 79.3959 5.57783 75.5316 5.57783C71.5616 5.57783 65.8447 8.23944 65.8447 16.6501C65.8447 23.6768 70.7676 28.7338 76.061 28.7338C79.4488 28.7338 82.2543 26.3384 82.9425 22.7186L83.7365 22.9315L82.9425 28.0418C81.5132 28.9467 77.5961 29.9049 75.3728 29.9049C67.3268 29.9049 62.2451 24.6349 62.2451 16.8098C62.2451 9.6767 68.5443 4.51318 75.267 4.51318C78.0725 4.51318 80.7192 5.41813 83.3659 6.37631L83.7365 11.2737Z" fill="#A4A4A4"/>
<path d="M96.4406 28.4146H96.8641C97.711 28.4146 98.558 28.1485 98.558 27.5629C98.558 27.1371 98.4521 26.8709 98.2933 26.3918L97.0229 22.8785H91.2001L90.459 25.1675C90.3002 25.6466 89.8767 26.8177 89.8767 27.4565C89.8767 28.3082 90.9884 28.4146 91.6765 28.4146H92.1V29.3196C90.9354 29.2663 89.7709 29.2664 88.6063 29.2664C87.7064 29.2664 86.7007 29.3196 85.8008 29.3196V28.4146C87.5476 28.4146 88.077 27.6694 88.3416 26.9241L93.2645 14.2016C93.4233 13.7758 93.5821 13.3499 93.5821 13.0305C93.5821 12.8708 93.5292 12.7111 93.5292 12.5515L96.1759 11.54L101.311 26.3386C101.84 27.9355 102.369 28.4146 104.169 28.4146V29.3196C102.846 29.2663 101.575 29.2664 100.305 29.2664C99.0344 29.2664 97.711 29.3196 96.4406 29.3196V28.4146ZM94.1644 14.734H94.1115L91.6236 21.7606H96.6523L94.1644 14.734Z" fill="#A4A4A4"/>
<path d="M109.145 14.6806C109.145 13.3498 108.193 13.1369 106.604 13.1369V12.2319C108.034 12.2852 109.41 12.2852 110.839 12.2852C112.057 12.2852 113.221 12.2319 114.386 12.2319C116.503 12.2319 120.315 12.3916 120.315 15.9582C120.315 18.6198 118.303 19.3118 116.08 19.8441V19.8974C119.573 20.2168 122.008 21.0685 122.008 24.5818C122.008 27.2966 119.573 29.2662 115.55 29.2662C114.227 29.2662 112.48 29.213 111.051 29.213C109.569 29.213 107.981 29.2662 106.604 29.2662V28.3613C108.193 28.3613 109.145 28.1483 109.145 26.8175V14.6806ZM112.11 19.578H113.539C116.133 19.578 117.403 18.0875 117.403 16.2776C117.403 13.403 114.968 13.403 113.909 13.403C113.168 13.403 112.586 13.4563 112.163 13.5095V19.578H112.11ZM112.11 26.924C112.11 28.2016 113.592 28.2016 114.756 28.2016C116.45 28.2016 118.832 27.9354 118.832 24.6883C118.832 21.2814 115.974 20.6958 114.015 20.6958H112.11V26.924Z" fill="#A4A4A4"/>
<path d="M126.984 14.6806C126.984 13.3498 126.031 13.1369 124.443 13.1369V12.2319C125.767 12.2852 127.09 12.2852 128.413 12.2852C129.79 12.2852 131.219 12.2319 132.489 12.2319V13.1369C130.901 13.1369 129.949 13.3498 129.949 14.6806V26.8708C129.949 28.2016 130.901 28.4145 132.489 28.4145V29.3195C131.219 29.2662 129.79 29.2662 128.413 29.2662C127.09 29.2662 125.767 29.3195 124.443 29.3195V28.4145C126.031 28.4145 126.984 28.2016 126.984 26.8708V14.6806Z" fill="#A4A4A4"/>
<path d="M138.047 14.7871C138.047 13.2433 135.983 13.1369 135.295 13.1369V12.2319C136.141 12.2852 136.883 12.2852 137.677 12.2852C138.418 12.2852 139.265 12.2319 139.953 12.2319L150.434 24.7415V15.5856C150.434 13.1901 149.481 13.1369 147.681 13.1369V12.2319C148.793 12.2852 149.957 12.2852 151.069 12.2852C152.075 12.2852 153.186 12.2319 154.139 12.2319V13.1369C152.498 13.1369 151.757 13.1901 151.757 14.9468V29.7453H150.91L139.318 16.0114V25.327C139.318 27.829 139.635 28.4145 142.229 28.4145V29.3195C141.117 29.2662 139.794 29.2662 138.629 29.2662C137.465 29.2662 136.3 29.3195 135.136 29.3195V28.4145C137.941 28.4145 137.941 26.9772 137.941 24.4753V14.7871H138.047Z" fill="#A4A4A4"/>
<path d="M170.866 29.3195C168.378 29.2662 165.943 29.2662 163.508 29.2662C161.285 29.2662 159.062 29.3195 156.892 29.3195V28.4145C158.48 28.4145 159.432 28.2016 159.432 26.8708V14.6806C159.432 13.3498 158.48 13.1369 156.892 13.1369V12.2319C158.427 12.2852 159.962 12.2852 161.55 12.2852C164.355 12.2852 167.214 12.2319 170.019 12.2319L170.231 15.905H169.49C169.067 13.5095 168.484 13.3498 164.938 13.3498H162.344V19.9506H165.202C166.896 19.9506 167.69 19.8974 167.69 17.5019H168.59C168.537 18.4069 168.537 19.365 168.537 20.27C168.537 21.2282 168.59 22.1863 168.59 23.1445H167.69C167.69 21.2282 167.267 21.0152 165.202 21.0152H162.344V26.1255C162.344 27.616 163.191 28.2016 165.996 28.2016C169.49 28.2016 169.702 27.7225 171.025 25.4335H171.872L170.866 29.3195Z" fill="#A4A4A4"/>
<path d="M179.759 13.35H177.165C175.048 13.35 174.677 13.6161 174.095 16.0116H173.195L173.672 11.4336H174.36C174.36 12.0724 175.154 12.2853 175.895 12.2853H186.852C187.646 12.2853 188.07 12.2853 188.652 11.4336H189.34L189.023 16.0116H188.07C187.858 13.7758 187.593 13.35 186.164 13.35H182.724V26.8709C182.724 28.2017 183.676 28.4147 185.476 28.4147V29.3196C183.994 29.2664 182.565 29.2664 181.188 29.2664C179.865 29.2664 178.542 29.3196 177.06 29.3196V28.4147C178.859 28.4147 179.812 28.2017 179.812 26.8709V13.35H179.759Z" fill="#A4A4A4"/>
<path d="M204.532 33.0454C204.532 37.7299 203.897 38.9542 202.944 40.6044C202.15 42.0417 200.35 43.1595 198.445 43.4257C198.445 43.4257 198.233 43.3725 198.233 43.2128C198.233 43.0531 198.233 42.6272 198.233 42.5207C198.233 42.3611 198.498 42.361 198.498 42.361C201.197 42.361 201.197 37.996 201.197 35.2279V14.5206C201.197 12.0719 199.874 12.0187 198.074 12.0187V11.1138C199.662 11.167 201.25 11.167 202.838 11.167C204.426 11.167 206.014 11.1138 207.708 11.1138V12.0187C205.909 12.0719 204.585 12.0719 204.585 14.5206V33.0454H204.532Z" fill="#979797"/>
<path d="M219.195 11.8062C224.753 11.8062 228.406 15.6389 228.406 20.6427C228.406 24.9545 224.859 29.6922 218.983 29.6922C213.319 29.6922 209.561 26.0191 209.561 20.6427C209.508 15.213 214.113 11.8062 219.195 11.8062ZM219.301 28.6275C223.642 28.6275 225.018 24.7948 225.018 21.0153C225.018 16.118 222.318 12.924 218.666 12.924C214.537 12.924 212.896 16.597 212.896 20.3765C212.896 25.0077 215.701 28.6275 219.301 28.6275Z" fill="#979797"/>
<path d="M233.223 14.6806C233.223 13.3498 232.324 13.1369 230.683 13.1369V12.2319C232.006 12.2852 233.329 12.2852 234.653 12.2852C236.029 12.2852 237.458 12.2319 238.729 12.2319V13.1369C237.141 13.1369 236.188 13.3498 236.188 14.6806V26.8708C236.188 28.2016 237.141 28.4145 238.729 28.4145V29.3195C237.458 29.2662 236.029 29.2662 234.653 29.2662C233.329 29.2662 232.006 29.3195 230.683 29.3195V28.4145C232.324 28.4145 233.223 28.2016 233.223 26.8708V14.6806Z" fill="#979797"/>
<path d="M244.286 14.7871C244.286 13.2433 242.222 13.1369 241.534 13.1369V12.2319C242.381 12.2852 243.122 12.2852 243.916 12.2852C244.657 12.2852 245.504 12.2319 246.192 12.2319L256.673 24.7415V15.5856C256.673 13.1901 255.72 13.1369 253.92 13.1369V12.2319C255.032 12.2852 256.197 12.2852 257.308 12.2852C258.314 12.2852 259.426 12.2319 260.378 12.2319V13.1369C258.737 13.1369 257.996 13.1901 257.996 14.9468V29.7453H257.149L245.557 16.0114V25.327C245.557 27.829 245.874 28.4145 248.468 28.4145V29.3195C247.357 29.2662 246.033 29.2662 244.869 29.2662C243.704 29.2662 242.54 29.3195 241.375 29.3195V28.4145C244.181 28.4145 244.181 26.9772 244.181 24.4753V14.7871H244.286Z" fill="#979797"/>
<path d="M269.218 13.35H266.624C264.507 13.35 264.136 13.6161 263.554 16.0116H262.654L263.131 11.4336H263.819C263.819 12.0724 264.613 12.2853 265.354 12.2853H276.311C277.105 12.2853 277.529 12.2853 278.111 11.4336H278.799L278.482 16.0116H277.529C277.317 13.7758 277.052 13.35 275.623 13.35H272.182V26.8709C272.182 28.2017 273.135 28.4147 274.935 28.4147V29.3196C273.453 29.2664 272.024 29.2664 270.647 29.2664C269.324 29.2664 268.001 29.3196 266.466 29.3196V28.4147C268.265 28.4147 269.218 28.2017 269.218 26.8709V13.35Z" fill="#979797"/>
<path d="M63.0391 42.9466H63.1979C63.8331 42.9466 63.9389 42.8934 64.0978 42.3079L65.1564 36.7185C65.2094 36.5588 65.2094 36.3991 65.2094 36.2926C65.2094 35.8135 64.8918 35.7071 64.3624 35.7603H64.2566L64.3095 35.4941C65.3152 35.5474 66.321 35.5474 67.3267 35.5474C67.909 35.5474 68.4913 35.4941 69.1265 35.4941L69.0206 37.0379H68.8089C68.756 36.7185 68.8089 36.2926 68.5442 36.0265C68.2796 35.8135 67.3267 35.8668 66.5857 35.8668H66.321L65.7387 39.0607H67.1679C68.0678 39.0607 68.1208 38.901 68.3854 38.1557L68.4384 37.9961H68.6501L68.1737 40.7109H67.962C67.962 40.498 68.0149 40.3383 68.0149 40.1253C68.0149 39.6463 67.6444 39.5398 67.2738 39.5398H65.5799L65.1035 42.3611C65.1035 42.4676 65.1035 42.574 65.1035 42.6273C65.1035 42.9999 65.2623 43.0531 65.9505 43.0531H66.1622L66.1093 43.3193C65.3152 43.3193 64.9447 43.3193 64.4154 43.3193C63.9919 43.3193 63.3037 43.3193 63.0391 43.3193V42.9466Z" fill="#979797"/>
<path d="M69.6027 39.5398C69.9203 39.0607 70.7144 38.1025 71.3496 38.1025C71.6143 38.1025 71.7201 38.209 71.7201 38.3687C71.7201 38.5284 71.6142 38.8478 71.5613 39.0075L70.6614 41.8288C70.6085 42.0417 70.5556 42.2014 70.5556 42.3079C70.5556 42.4143 70.6085 42.4676 70.7144 42.4676C70.8732 42.4676 71.4554 41.882 71.5613 41.7223L71.7201 41.882C71.3496 42.3611 70.6085 43.3725 69.9733 43.3725C69.6557 43.3725 69.5498 43.1596 69.5498 42.9466C69.5498 42.7869 69.6027 42.6272 69.6557 42.4143L70.6085 39.593C70.6614 39.4333 70.7144 39.2736 70.7144 39.1672C70.7144 39.1139 70.6614 39.0075 70.5556 39.0075C70.3438 39.0075 69.9204 39.5398 69.7615 39.6995L69.6027 39.5398ZM72.0907 36.0265C72.0907 36.2926 71.826 36.5056 71.5613 36.5056C71.2966 36.5056 71.032 36.2394 71.032 36.0265C71.032 35.7603 71.2437 35.4941 71.5613 35.4941C71.8789 35.4941 72.0907 35.7603 72.0907 36.0265Z" fill="#979797"/>
<path d="M72.5146 39.5398C72.9381 39.0075 73.7321 38.1558 74.4732 38.1558C74.7379 38.1558 74.8438 38.3155 74.8438 38.5284C74.8438 38.7413 74.7908 38.9542 74.7379 39.0607L74.1556 40.7641C74.685 40.0189 76.3259 38.1558 77.4375 38.1558C77.8081 38.1558 77.861 38.3687 77.861 38.6349C77.861 38.7945 77.8081 39.0075 77.7552 39.1672L76.8553 41.6159C76.7494 41.882 76.6965 42.0417 76.6965 42.2014C76.6965 42.3611 76.7494 42.4143 76.9082 42.4143C77.2258 42.4143 77.7022 41.882 77.861 41.6159L78.0728 41.7756L77.6493 42.2546C77.2787 42.7337 76.6965 43.2128 76.1142 43.2128C75.8495 43.2128 75.6907 43.0531 75.6907 42.8402C75.6907 42.6805 75.7436 42.4676 75.8495 42.1482L76.6965 39.7527C76.7494 39.6463 76.8553 39.3269 76.8553 39.2204C76.8553 39.0607 76.6965 39.0075 76.5906 39.0075C75.9554 39.0075 75.3202 39.7527 74.9496 40.1786C74.3144 40.8174 73.838 41.6159 73.5733 42.4676L73.3616 43.1064C73.3087 43.2128 73.0969 43.2128 72.9381 43.2128C72.8323 43.2128 72.6205 43.1596 72.5676 43.0531L73.6792 39.7527C73.7321 39.5398 73.838 39.3269 73.838 39.2204C73.838 39.1139 73.7851 39.0075 73.6792 39.0075C73.4675 39.0075 73.2557 39.1672 73.044 39.3801L72.7264 39.6995L72.5146 39.5398Z" fill="#979797"/>
<path d="M82.7843 41.9353C82.0432 42.7337 81.2492 43.3725 80.2435 43.3725C79.2377 43.3725 78.8672 42.6273 78.8672 41.882C78.8672 40.0721 80.4552 38.1025 82.0433 38.1025C82.5197 38.1025 83.1549 38.2622 83.1549 38.901C83.1549 40.4448 81.0375 40.9238 79.82 41.0835C79.7671 41.3497 79.7141 41.6691 79.7141 41.9353C79.7141 42.4676 80.0847 42.787 80.614 42.787C81.2492 42.787 81.9374 42.3611 82.5726 41.7223L82.7843 41.9353ZM82.3079 38.9543C82.3079 38.6881 82.1491 38.4752 81.8315 38.4752C80.9846 38.4752 80.0847 40.0189 79.9259 40.7641C80.9316 40.7109 82.3079 40.1786 82.3079 38.9543Z" fill="#979797"/>
<path d="M84.9013 42.0418C84.9013 42.0951 84.8483 42.2015 84.8483 42.2548C84.8483 42.3612 84.8483 42.4677 85.0071 42.4677C85.2189 42.4677 85.7482 41.7757 85.8541 41.616L86.0129 41.8289C85.6423 42.308 85.0071 43.3726 84.319 43.3726C83.9484 43.3726 83.8955 43.1065 83.8955 42.8403C83.8955 42.6274 83.9484 42.4145 83.9484 42.308L85.4835 35.5475L84.7954 35.1749L84.8483 35.0152C85.113 35.0152 85.3777 34.962 85.6423 34.9087C85.96 34.8555 86.2246 34.749 86.4364 34.6958L86.4893 34.749L84.9013 42.0418Z" fill="#979797"/>
<path d="M86.9657 39.9657L86.701 39.806C86.701 39.0607 87.0186 38.1025 87.9185 38.1025C89.5065 38.1025 89.4536 41.6159 89.6653 42.6805C90.1417 41.8288 90.8828 40.6577 90.8828 39.6995C90.8828 39.2736 90.724 39.114 90.724 38.7946C90.724 38.4752 90.8828 38.1025 91.2534 38.1025C91.571 38.1025 91.6768 38.4219 91.6768 38.6881C91.6768 39.9124 89.8771 42.9999 89.083 44.0113C88.6066 44.6501 87.8656 45.768 86.9657 45.768C86.7539 45.768 86.4893 45.555 86.4893 45.3421C86.4893 45.1292 86.6481 44.863 86.9127 44.863C87.0715 44.863 87.1774 44.9163 87.3891 44.9163C87.6538 44.9163 87.9714 44.8098 88.342 44.3839L88.9242 43.6919L88.8713 43.1064L88.7654 42.2014C88.6066 40.9238 88.1832 38.9543 87.4421 38.9543C87.1245 38.9543 86.9127 39.1672 86.9127 39.4866C86.9127 39.6463 86.9127 39.7527 86.9657 39.9124V39.9657Z" fill="#979797"/>
<path d="M99.6699 41.7756C98.9288 42.6273 98.0819 43.3725 96.9173 43.3725C96.0174 43.3725 95.541 42.7337 95.541 41.8288C95.541 40.2851 96.7056 39.0075 97.976 38.4752C98.2936 38.3155 98.8759 38.1025 99.2464 38.1025C99.5111 38.1025 99.7758 38.2622 99.7758 38.5284C99.7758 38.8478 99.564 39.114 99.2464 39.114C98.8759 39.114 98.6641 38.7413 98.3465 38.7413C97.2349 38.7413 96.388 40.7641 96.388 41.7223C96.388 42.3611 96.8114 42.7337 97.4466 42.7337C98.1877 42.7337 98.9288 42.0417 99.4582 41.5626L99.6699 41.7756Z" fill="#979797"/>
<path d="M100.306 39.593C100.623 39.1672 101.47 38.1025 102 38.1025C102.264 38.1025 102.476 38.209 102.476 38.5284C102.476 38.6349 102.423 38.8478 102.37 39.114L101.947 40.6577C102.264 40.0721 103.27 38.1025 104.011 38.1025C104.223 38.1025 104.382 38.2622 104.382 38.4752C104.382 38.7413 104.276 39.3269 103.905 39.3269C103.746 39.3269 103.641 39.2736 103.482 39.2736C102.741 39.2736 101.947 41.4562 101.576 42.574L101.364 43.2661C101.364 43.3193 101.153 43.3725 100.941 43.3725C100.782 43.3725 100.57 43.2661 100.57 43.1596C100.57 43.1064 100.57 43.1064 100.57 43.0531L101.47 39.9657C101.523 39.806 101.629 39.4866 101.629 39.3269C101.629 39.2204 101.576 39.0607 101.417 39.0607C101.1 39.0607 100.676 39.593 100.464 39.806L100.306 39.593Z" fill="#979797"/>
<path d="M108.562 38.1026C108.615 38.0493 108.668 37.8896 108.827 37.8896H109.039C109.092 37.8896 109.145 37.8896 109.145 37.9429C109.145 37.9429 109.145 37.9961 109.145 38.0493L108.033 42.0418C107.98 42.1482 107.98 42.2015 107.98 42.3079C107.98 42.3612 108.033 42.4676 108.139 42.4676C108.457 42.4676 108.774 41.9885 108.986 41.8288L109.145 41.9885C108.721 42.4676 108.086 43.4258 107.345 43.4258C107.186 43.4258 106.974 43.3193 106.974 43.1064C106.974 42.8935 107.08 42.6273 107.186 42.3079L107.504 41.3497V41.2965C106.922 42.1482 105.916 43.4258 105.016 43.4258C104.328 43.4258 104.169 42.8935 104.169 42.5208C104.169 40.7642 106.339 38.1558 107.768 38.1558C108.033 38.1558 108.298 38.3155 108.457 38.5284L108.562 38.1026ZM105.492 42.5741C106.551 42.5741 107.927 40.2319 107.927 39.2205C107.927 38.9543 107.663 38.6349 107.398 38.6349C106.18 38.6349 104.91 40.6577 104.91 41.7756C104.91 42.1482 105.016 42.5741 105.492 42.5741Z" fill="#979797"/>
<path d="M113.327 38.2624L113.168 38.7415H111.95L110.098 45.5552L109.409 45.7681L109.356 45.7149L111.05 38.7415H110.045L110.15 38.2624H111.103C111.474 37.038 111.738 36.0798 112.797 35.1749C113.115 34.9087 113.538 34.6426 113.962 34.6426C114.173 34.6426 114.438 34.749 114.438 35.0152C114.438 35.1749 114.332 35.5475 114.121 35.5475C113.909 35.5475 113.697 35.3346 113.432 35.3346C112.744 35.3346 112.533 36.0798 112.374 36.7186L112.003 38.2624H113.327Z" fill="#979797"/>
<path d="M115.603 36.8784H116.503L116.027 38.2625H117.191L117.032 38.7415H115.868L114.915 41.9887C114.862 42.0952 114.862 42.2016 114.862 42.3613C114.862 42.521 114.915 42.6275 115.074 42.6275C115.497 42.6275 116.185 41.9355 116.45 41.6693L116.609 41.8822C116.132 42.4678 115.18 43.4792 114.386 43.4792C114.068 43.4792 113.909 43.213 113.909 42.8937C113.909 42.6807 114.015 42.3613 114.068 42.2016L115.074 38.848H113.962L114.121 38.3689H115.18L115.603 36.8784Z" fill="#979797"/>
<path d="M121.479 41.9353C120.738 42.7337 119.944 43.3725 118.938 43.3725C117.932 43.3725 117.562 42.6273 117.562 41.882C117.562 40.0721 119.15 38.1025 120.738 38.1025C121.214 38.1025 121.849 38.2622 121.849 38.901C121.849 40.4448 119.732 40.9238 118.514 41.0835C118.461 41.3497 118.408 41.6691 118.408 41.9353C118.408 42.4676 118.779 42.787 119.308 42.787C119.944 42.787 120.632 42.3611 121.267 41.7223L121.479 41.9353ZM121.002 38.9543C121.002 38.6881 120.843 38.4752 120.526 38.4752C119.679 38.4752 118.779 40.0189 118.62 40.7641C119.626 40.7109 121.002 40.1786 121.002 38.9543Z" fill="#979797"/>
<path d="M127.884 41.8821C127.513 42.4145 126.719 43.4259 126.031 43.4259C125.819 43.4259 125.66 43.2662 125.66 43.0532C125.66 42.7871 125.766 42.3612 125.872 42.0951L125.925 41.8289C125.29 42.5742 124.602 43.4259 123.543 43.4259C122.749 43.4259 122.484 42.7871 122.484 42.0951C122.484 41.403 122.802 40.6046 123.225 39.9658C123.755 39.2205 124.866 38.1559 125.872 38.1559C126.19 38.1559 126.454 38.2623 126.719 38.422L127.248 35.6007L126.56 35.2281L126.613 35.0684C126.878 35.0684 127.143 35.0152 127.407 34.962C127.725 34.9087 127.99 34.8023 128.201 34.749L128.307 34.8023L126.56 42.0418C126.507 42.2015 126.507 42.308 126.507 42.4145C126.507 42.5209 126.56 42.5742 126.666 42.5742C126.984 42.5742 127.407 41.9886 127.619 41.7757L127.884 41.8821ZM124.178 42.7871C125.29 42.7871 126.402 40.4981 126.402 39.5932C126.402 39.0608 126.19 38.5817 125.608 38.5817C124.337 38.5817 123.384 40.711 123.384 41.7757C123.384 42.2548 123.596 42.7871 124.178 42.7871Z" fill="#979797"/>
<path d="M128.413 44.5439C129.101 44.4375 129.895 44.2245 129.895 43.426C129.895 43.3728 129.895 43.2664 129.842 43.2131C129.578 43.1067 129.419 43.1599 129.207 42.947C129.101 42.8405 129.048 42.734 129.048 42.5743C129.048 42.042 129.472 41.9355 129.789 41.9355C130.372 41.9355 130.636 42.4679 130.636 43.0002C130.636 44.1181 129.525 44.8633 128.466 44.8101L128.413 44.5439Z" fill="#979797"/>
<path d="M138.577 38.2624L138.418 38.7415H137.2L135.348 45.5552L134.659 45.7681L134.606 45.7149L136.3 38.7415H135.348L135.453 38.2624H136.406C136.777 37.038 137.041 36.0798 138.1 35.1749C138.418 34.9087 138.841 34.6426 139.265 34.6426C139.476 34.6426 139.741 34.749 139.741 35.0152C139.741 35.1749 139.635 35.5475 139.423 35.5475C139.212 35.5475 139 35.3346 138.735 35.3346C138.047 35.3346 137.835 36.0798 137.677 36.7186L137.306 38.2624H138.577Z" fill="#979797"/>
<path d="M144.24 41.8288C143.764 42.3079 143.076 43.2128 142.335 43.2128C142.07 43.2128 141.911 43.0531 141.911 42.8402C141.911 42.6805 142.017 42.3611 142.123 41.9885L142.811 40.0189C142.282 40.7109 140.429 43.2128 139.37 43.2128C139.106 43.2128 138.894 42.9999 138.894 42.787C138.894 42.6805 138.947 42.5208 139 42.3079L139.953 39.4334C139.953 39.4334 140.006 39.3269 140.006 39.1672C140.006 39.0607 139.953 39.0075 139.847 39.0075C139.529 39.0075 139.159 39.5398 138.947 39.7527L138.788 39.5398L139.159 39.1672C139.635 38.6881 140.217 38.1025 140.747 38.1025C140.958 38.1025 141.117 38.2622 141.117 38.4752C141.117 38.6349 141.064 38.8478 140.958 39.0607L139.953 42.0417C139.953 42.095 139.953 42.1482 139.953 42.2014C139.953 42.2547 140.059 42.3079 140.164 42.3079C140.905 42.3079 143.023 39.4334 143.393 38.4219C143.446 38.209 143.552 38.0493 143.764 38.0493C143.976 38.0493 144.134 38.2622 144.24 38.3687L143.023 41.9885C143.023 42.0417 142.97 42.095 142.97 42.1482C142.97 42.2547 143.023 42.3079 143.129 42.3079C143.393 42.3079 143.87 41.7756 144.082 41.6159L144.24 41.8288Z" fill="#979797"/>
<path d="M146.094 42.0418C146.094 42.0951 146.041 42.2015 146.041 42.2548C146.041 42.3612 146.041 42.4677 146.2 42.4677C146.411 42.4677 146.941 41.7757 147.046 41.616L147.205 41.8289C146.835 42.308 146.2 43.3726 145.511 43.3726C145.141 43.3726 145.088 43.1065 145.088 42.8403C145.088 42.6274 145.141 42.4145 145.141 42.308L146.676 35.5475L145.988 35.1749L146.041 35.0152C146.305 35.0152 146.57 34.962 146.835 34.9087C147.152 34.8555 147.417 34.749 147.629 34.6958L147.682 34.749L146.094 42.0418Z" fill="#979797"/>
<path d="M149.163 42.0418C149.163 42.0951 149.11 42.2015 149.11 42.2548C149.11 42.3612 149.11 42.4677 149.269 42.4677C149.481 42.4677 150.01 41.7757 150.116 41.616L150.275 41.8289C149.904 42.308 149.269 43.3726 148.581 43.3726C148.21 43.3726 148.157 43.1065 148.157 42.8403C148.157 42.6274 148.21 42.4145 148.21 42.308L149.745 35.5475L149.057 35.1749L149.11 35.0152C149.375 35.0152 149.639 34.962 149.904 34.9087C150.222 34.8555 150.486 34.749 150.698 34.6958L150.751 34.749L149.163 42.0418Z" fill="#979797"/>
<path d="M151.175 39.9657L150.91 39.806C150.91 39.0607 151.228 38.1025 152.127 38.1025C153.716 38.1025 153.663 41.6159 153.874 42.6805C154.351 41.8288 155.092 40.6577 155.092 39.6995C155.092 39.2736 154.933 39.114 154.933 38.7946C154.933 38.4752 155.092 38.1025 155.462 38.1025C155.78 38.1025 155.886 38.4219 155.886 38.6881C155.886 39.9124 154.086 42.9999 153.292 44.0113C152.816 44.6501 152.075 45.768 151.175 45.768C150.963 45.768 150.698 45.555 150.698 45.3421C150.698 45.1292 150.857 44.863 151.122 44.863C151.281 44.863 151.386 44.9163 151.598 44.9163C151.863 44.9163 152.18 44.8098 152.551 44.3839L153.133 43.6919L153.08 43.1064L152.974 42.2014C152.816 40.9238 152.392 38.9543 151.651 38.9543C151.333 38.9543 151.122 39.1672 151.122 39.4866C151.122 39.6463 151.122 39.7527 151.175 39.9124V39.9657Z" fill="#979797"/>
<path d="M163.879 41.7756C163.138 42.6273 162.291 43.3725 161.126 43.3725C160.226 43.3725 159.75 42.7337 159.75 41.8288C159.75 40.2851 160.915 39.0075 162.185 38.4752C162.503 38.3155 163.085 38.1025 163.455 38.1025C163.72 38.1025 163.985 38.2622 163.985 38.5284C163.985 38.8478 163.773 39.114 163.455 39.114C163.085 39.114 162.873 38.7413 162.556 38.7413C161.444 38.7413 160.597 40.7641 160.597 41.7223C160.597 42.3611 161.02 42.7337 161.656 42.7337C162.397 42.7337 163.138 42.0417 163.667 41.5626L163.879 41.7756Z" fill="#979797"/>
<path d="M170.02 41.8288C169.543 42.3079 168.855 43.2128 168.114 43.2128C167.849 43.2128 167.691 43.0531 167.691 42.8402C167.691 42.6805 167.796 42.3611 167.902 41.9885L168.59 40.0189C168.061 40.7109 166.208 43.2128 165.15 43.2128C164.885 43.2128 164.673 42.9999 164.673 42.787C164.673 42.6805 164.726 42.5208 164.779 42.3079L165.732 39.4334C165.732 39.4334 165.785 39.3269 165.785 39.1672C165.785 39.0607 165.732 39.0075 165.626 39.0075C165.308 39.0075 164.938 39.5398 164.726 39.7527L164.567 39.5398L164.938 39.1672C165.414 38.6881 165.997 38.1025 166.526 38.1025C166.738 38.1025 166.896 38.2622 166.896 38.4752C166.896 38.6349 166.844 38.8478 166.738 39.0607L165.732 42.0417C165.732 42.095 165.732 42.1482 165.732 42.2014C165.732 42.2547 165.838 42.3079 165.944 42.3079C166.685 42.3079 168.802 39.4334 169.173 38.4219C169.226 38.209 169.331 38.0493 169.543 38.0493C169.755 38.0493 169.914 38.2622 170.02 38.3687L168.802 41.9885C168.802 42.0417 168.749 42.095 168.749 42.1482C168.749 42.2547 168.802 42.3079 168.908 42.3079C169.173 42.3079 169.649 41.7756 169.861 41.6159L170.02 41.8288Z" fill="#979797"/>
<path d="M171.131 41.8288C171.237 42.4676 171.978 42.7337 172.561 42.7337C172.878 42.7337 173.566 42.6805 173.566 42.2546C173.566 41.5094 171.926 40.9771 171.608 40.2851C171.555 40.1254 171.502 39.9124 171.502 39.7527C171.502 39.1672 172.296 38.6881 172.72 38.3687C173.037 38.1558 173.196 38.1025 173.566 38.1025C174.043 38.1025 174.519 38.209 174.519 38.7946C174.519 38.9543 174.413 39.2736 174.308 39.2736H174.149C174.043 39.2736 174.043 39.2204 173.99 39.114C173.884 38.901 173.461 38.6881 173.09 38.6881C172.72 38.6881 172.243 38.901 172.243 39.3269C172.243 40.2318 174.202 40.498 174.202 41.6691C174.202 42.0949 173.778 42.574 173.461 42.8402C173.09 43.2128 172.667 43.3725 172.137 43.3725C171.608 43.3725 170.708 43.2128 170.708 42.5208C170.708 42.2546 170.867 42.0417 170.973 41.8288H171.131Z" fill="#979797"/>
<path d="M177.166 36.8784H178.065L177.589 38.2625H178.754L178.595 38.7415H177.43L176.477 41.9887C176.425 42.0952 176.425 42.2016 176.425 42.3613C176.425 42.521 176.477 42.6275 176.636 42.6275C177.06 42.6275 177.748 41.9355 178.013 41.6693L178.171 41.8822C177.695 42.4678 176.742 43.4792 175.948 43.4792C175.63 43.4792 175.472 43.213 175.472 42.8937C175.472 42.6807 175.578 42.3613 175.63 42.2016L176.636 38.848H175.525L175.683 38.3689H176.742L177.166 36.8784Z" fill="#979797"/>
<path d="M182.142 38.1025C183.412 38.1025 184.259 39.0607 184.259 40.3915C184.259 41.9885 182.936 43.3725 181.348 43.3725C180.025 43.3725 179.178 42.4676 179.178 41.1368C179.178 39.5398 180.501 38.1025 182.142 38.1025ZM181.348 43.1064C182.777 43.1064 183.412 41.1368 183.412 39.9657C183.412 39.1672 183.095 38.3687 182.142 38.3687C180.66 38.3687 180.078 40.2318 180.078 41.5094C180.025 42.3611 180.342 43.1064 181.348 43.1064Z" fill="#979797"/>
<path d="M193.734 41.8288L193.363 42.2015C192.94 42.6805 192.41 43.1596 191.775 43.1596C191.563 43.1596 191.352 43.0532 191.352 42.787C191.352 42.6805 191.405 42.4676 191.511 42.2547L192.41 39.6463C192.463 39.4866 192.516 39.2737 192.516 39.1672C192.516 39.0075 192.357 38.9011 192.252 38.9011C191.669 38.9011 190.664 40.0189 190.293 40.4448C189.764 41.0836 189.446 41.6691 189.128 42.4676L188.917 42.9999C188.864 43.1064 188.652 43.1596 188.546 43.1596C188.387 43.1596 188.176 43.1064 188.176 42.9999L189.181 40.0189C189.234 39.9125 189.393 39.4866 189.393 39.1672C189.393 39.0075 189.34 38.9011 189.181 38.9011C188.599 38.9011 187.911 39.6995 187.54 40.0722C186.905 40.711 186.429 41.5094 186.164 42.3612L185.952 42.9999C185.899 43.1064 185.688 43.1064 185.529 43.1064C185.423 43.1064 185.211 43.0532 185.158 42.9467L186.323 39.3802C186.323 39.3269 186.376 39.2205 186.376 39.114C186.376 39.0075 186.323 38.9011 186.217 38.9011C186.005 38.9011 185.794 39.114 185.582 39.2737L185.264 39.5931L185.105 39.3802C185.529 38.8478 186.323 37.9429 187.064 37.9429C187.329 37.9429 187.435 38.1026 187.435 38.3155C187.435 38.5284 187.382 38.7414 187.329 38.8478L186.746 40.5513C187.276 39.806 188.917 37.9429 189.923 37.9429C190.293 37.9429 190.399 38.1026 190.399 38.3155C190.399 38.4752 190.346 38.7414 190.293 38.9011L189.764 40.5513C190.346 39.806 192.04 37.8896 193.099 37.8896C193.469 37.8896 193.522 38.1026 193.522 38.3687C193.522 38.5284 193.469 38.7414 193.416 38.9011L192.516 41.5094C192.463 41.6691 192.357 41.9353 192.357 42.0418C192.357 42.1482 192.463 42.2015 192.516 42.2015C192.728 42.2015 193.31 41.6691 193.469 41.5094L193.734 41.8288Z" fill="#979797"/>
<path d="M208.027 35.3877C208.503 35.3877 209.033 35.3877 209.509 35.3877C209.88 35.3877 210.25 35.3877 210.674 35.3877C211.785 35.3877 213.161 35.7603 213.161 37.0911C213.161 38.4219 211.997 39.0075 210.885 39.1672C211.626 39.9124 212.103 40.9238 212.632 41.8288C212.95 42.3611 213.267 42.9467 213.956 42.8402L213.903 43.1064H212.526C212.209 43.1064 211.626 42.2014 211.15 41.2432C210.621 40.2851 210.091 39.2736 209.827 39.2204C209.721 39.1672 209.615 39.2204 209.456 39.2204L208.98 41.9885L208.927 42.4143C208.927 42.8402 209.403 42.8402 209.774 42.8402H209.985L209.932 43.1064C209.403 43.1064 208.927 43.1064 208.397 43.1064C207.921 43.1064 207.392 43.1064 206.862 43.1064L206.915 42.8402H207.021C207.55 42.8402 207.762 42.8402 207.921 42.0417L208.927 36.5056C208.98 36.3459 208.98 36.2394 208.98 36.1329C208.98 35.7071 208.715 35.6539 208.133 35.6539H207.974L208.027 35.3877ZM209.509 39.0075C209.774 39.0075 210.038 39.0075 210.25 39.0075C211.309 38.9542 212.103 38.3155 212.103 37.1976C212.103 36.0797 211.415 35.7603 210.197 35.7603H210.038L209.509 39.0075Z" fill="#979797"/>
<path d="M218.349 35.8668H216.497C215.597 35.8668 215.438 36.6653 215.332 37.1444H215.067L215.491 35.2812H215.703C215.808 35.3345 215.914 35.3877 216.02 35.3877C216.126 35.4409 216.232 35.4409 216.338 35.4409H221.525C221.737 35.4409 221.949 35.3877 222.108 35.2812H222.319L222.108 37.1976H221.843V36.8782C221.843 36.133 221.684 35.92 220.943 35.92H219.408L218.349 41.882C218.349 41.9885 218.243 42.4144 218.243 42.5208C218.243 42.8935 218.455 42.9467 219.037 42.9467H219.302L219.249 43.2128C218.667 43.2128 218.085 43.2128 217.449 43.2128C216.973 43.2128 216.497 43.2128 216.02 43.2128L216.073 42.9467H216.444C216.92 42.9467 217.132 42.787 217.291 42.095L218.349 35.8668Z" fill="#979797"/>
<path d="M226.183 35.3877C226.342 35.3345 226.448 35.3345 226.607 35.2812L226.66 35.3345L227.877 42.2547C227.93 42.7338 228.142 42.9999 228.671 42.9467L228.618 43.2128C228.142 43.2128 227.665 43.2128 227.242 43.2128C226.818 43.2128 226.448 43.2128 226.024 43.2128L226.077 42.9467C226.395 42.9467 226.924 42.9467 226.871 42.5208L226.554 40.2851H223.96L223.06 42.2014C223.007 42.3611 222.954 42.5208 222.954 42.6273C222.954 42.9467 223.219 42.9467 223.431 42.9467H223.748L223.695 43.2128C223.272 43.2128 222.795 43.2128 222.372 43.2128C222.001 43.2128 221.684 43.2128 221.366 43.2128L221.419 42.9467C221.948 42.9467 222.213 42.6273 222.425 42.2014L226.183 35.3877ZM224.172 39.806H226.448L225.972 36.4524L224.172 39.806Z" fill="#979797"/>
<path d="M237.035 41.7756C236.294 42.6273 235.447 43.3725 234.283 43.3725C233.383 43.3725 232.906 42.7337 232.906 41.8288C232.906 40.2851 234.071 39.0075 235.341 38.4752C235.659 38.3155 236.241 38.1025 236.612 38.1025C236.876 38.1025 237.141 38.2622 237.141 38.5284C237.141 38.8478 236.929 39.114 236.612 39.114C236.241 39.114 236.029 38.7413 235.712 38.7413C234.6 38.7413 233.753 40.7641 233.753 41.7223C233.753 42.3611 234.177 42.7337 234.812 42.7337C235.553 42.7337 236.294 42.0417 236.823 41.5626L237.035 41.7756Z" fill="#979797"/>
<path d="M242.169 38.1026C242.222 38.0493 242.275 37.8896 242.434 37.8896H242.645C242.698 37.8896 242.751 37.8896 242.751 37.9429C242.751 37.9429 242.751 37.9961 242.751 38.0493L241.64 42.0418C241.587 42.1482 241.587 42.2015 241.587 42.3079C241.587 42.3612 241.64 42.4676 241.745 42.4676C242.063 42.4676 242.381 41.9885 242.592 41.8288L242.751 41.9885C242.328 42.4676 241.693 43.4258 240.951 43.4258C240.793 43.4258 240.581 43.3193 240.581 43.1064C240.581 42.8935 240.687 42.6273 240.793 42.3079L241.11 41.3497V41.2965C240.528 42.1482 239.522 43.4258 238.622 43.4258C237.934 43.4258 237.775 42.8935 237.775 42.5208C237.775 40.7642 239.946 38.1558 241.375 38.1558C241.64 38.1558 241.904 38.3155 242.063 38.5284L242.169 38.1026ZM239.099 42.5741C240.157 42.5741 241.534 40.2319 241.534 39.2205C241.534 38.9543 241.269 38.6349 241.004 38.6349C239.787 38.6349 238.516 40.6577 238.516 41.7756C238.569 42.1482 238.675 42.5741 239.099 42.5741Z" fill="#979797"/>
<path d="M245.081 39.6996C245.716 39.0076 246.616 38.1027 247.622 38.1027C248.522 38.1027 248.892 38.6882 248.892 39.5399C248.892 41.3498 246.881 43.3727 245.081 43.3727C244.34 43.3727 243.758 43 243.758 42.2015C243.758 41.9354 243.811 41.6692 243.917 41.3498L245.399 35.4943L244.869 35.1749L244.922 34.962C245.134 34.962 245.452 34.9087 245.769 34.8023C245.981 34.749 246.299 34.6958 246.457 34.6426L246.563 34.6958L245.081 39.6996ZM247.304 38.5818C245.928 38.5818 244.552 40.924 244.552 42.1483C244.552 42.6274 244.711 43.1065 245.24 43.1065C246.616 43.1065 247.94 40.6578 247.94 39.3802C247.94 38.9012 247.781 38.5818 247.304 38.5818Z" fill="#979797"/>
<path d="M249.898 39.5398C250.215 39.0607 251.009 38.1025 251.645 38.1025C251.909 38.1025 252.015 38.209 252.015 38.3687C252.015 38.5284 251.909 38.8478 251.856 39.0075L250.956 41.8288C250.903 42.0417 250.85 42.2014 250.85 42.3079C250.85 42.4143 250.903 42.4676 251.009 42.4676C251.168 42.4676 251.75 41.882 251.856 41.7223L252.015 41.882C251.644 42.3611 250.903 43.3725 250.268 43.3725C249.951 43.3725 249.845 43.1596 249.845 42.9466C249.845 42.7869 249.898 42.6272 249.951 42.4143L250.903 39.593C250.956 39.4333 251.009 39.2736 251.009 39.1672C251.009 39.1139 250.956 39.0075 250.85 39.0075C250.639 39.0075 250.215 39.5398 250.056 39.6995L249.898 39.5398ZM252.386 36.0265C252.386 36.2926 252.121 36.5056 251.856 36.5056C251.592 36.5056 251.327 36.2394 251.327 36.0265C251.327 35.7603 251.539 35.4941 251.856 35.4941C252.174 35.4941 252.386 35.7603 252.386 36.0265Z" fill="#979797"/>
<path d="M252.809 39.5398C253.232 39.0075 254.026 38.1558 254.767 38.1558C255.032 38.1558 255.138 38.3155 255.138 38.5284C255.138 38.7413 255.085 38.9542 255.032 39.0607L254.45 40.7641C254.979 40.0189 256.62 38.1558 257.732 38.1558C258.102 38.1558 258.155 38.3687 258.155 38.6349C258.155 38.7945 258.102 39.0075 258.049 39.1672L257.149 41.6159C257.043 41.882 256.99 42.0417 256.99 42.2014C256.99 42.3611 257.043 42.4143 257.202 42.4143C257.52 42.4143 257.996 41.882 258.155 41.6159L258.367 41.7756L257.943 42.2546C257.573 42.7337 256.99 43.2128 256.408 43.2128C256.143 43.2128 255.985 43.0531 255.985 42.8402C255.985 42.6805 256.038 42.4676 256.143 42.1482L256.99 39.7527C257.043 39.6463 257.149 39.3269 257.149 39.2204C257.149 39.0607 256.99 39.0075 256.885 39.0075C256.249 39.0075 255.614 39.7527 255.244 40.1786C254.608 40.8174 254.132 41.6159 253.867 42.4676L253.656 43.1064C253.603 43.2128 253.391 43.2128 253.232 43.2128C253.126 43.2128 252.914 43.1596 252.862 43.0531L253.973 39.7527C254.026 39.5398 254.132 39.3269 254.132 39.2204C254.132 39.1139 254.079 39.0075 253.973 39.0075C253.761 39.0075 253.55 39.1672 253.338 39.3801L253.02 39.6995L252.809 39.5398Z" fill="#979797"/>
<path d="M263.078 41.9353C262.337 42.7337 261.543 43.3725 260.537 43.3725C259.532 43.3725 259.161 42.6273 259.161 41.882C259.161 40.0721 260.749 38.1025 262.337 38.1025C262.814 38.1025 263.449 38.2622 263.449 38.901C263.449 40.4448 261.331 40.9238 260.114 41.0835C260.061 41.3497 260.008 41.6691 260.008 41.9353C260.008 42.4676 260.379 42.787 260.908 42.787C261.543 42.787 262.231 42.3611 262.867 41.7223L263.078 41.9353ZM262.602 38.9543C262.602 38.6881 262.443 38.4752 262.125 38.4752C261.279 38.4752 260.379 40.0189 260.22 40.7641C261.226 40.7109 262.602 40.1786 262.602 38.9543Z" fill="#979797"/>
<path d="M266.043 36.8784H266.942L266.466 38.2625H267.631L267.472 38.7415H266.307L265.354 41.9887C265.301 42.0952 265.301 42.2016 265.301 42.3613C265.301 42.521 265.354 42.6275 265.513 42.6275C265.937 42.6275 266.625 41.9355 266.889 41.6693L267.048 41.8822C266.572 42.4678 265.619 43.4792 264.825 43.4792C264.507 43.4792 264.349 43.213 264.349 42.8937C264.349 42.6807 264.454 42.3613 264.507 42.2016L265.513 38.848H264.402L264.56 38.3689H265.619L266.043 36.8784Z" fill="#979797"/>
<path d="M267.896 39.593C268.16 39.1672 269.007 38.1025 269.589 38.1025C269.854 38.1025 270.066 38.209 270.066 38.5284C270.066 38.6349 270.013 38.8478 269.96 39.114L269.536 40.6577C269.854 40.0721 270.86 38.1025 271.601 38.1025C271.813 38.1025 271.971 38.2622 271.971 38.4752C271.971 38.7413 271.866 39.3269 271.495 39.3269C271.336 39.3269 271.23 39.2736 271.072 39.2736C270.331 39.2736 269.536 41.4562 269.166 42.574L268.954 43.2661C268.954 43.3193 268.742 43.3725 268.531 43.3725C268.372 43.3725 268.16 43.2661 268.16 43.1596C268.16 43.1064 268.16 43.1064 268.16 43.0531L269.06 39.9657C269.113 39.806 269.219 39.4866 269.219 39.3269C269.219 39.2204 269.166 39.0607 269.007 39.0607C268.69 39.0607 268.266 39.593 268.054 39.806L267.896 39.593Z" fill="#979797"/>
<path d="M272.765 39.9657L272.501 39.806C272.501 39.0607 272.818 38.1025 273.718 38.1025C275.306 38.1025 275.253 41.6159 275.465 42.6805C275.942 41.8288 276.683 40.6577 276.683 39.6995C276.683 39.2736 276.524 39.114 276.524 38.7946C276.524 38.4752 276.683 38.1025 277.053 38.1025C277.371 38.1025 277.477 38.4219 277.477 38.6881C277.477 39.9124 275.677 42.9999 274.883 44.0113C274.406 44.6501 273.665 45.768 272.765 45.768C272.554 45.768 272.289 45.555 272.289 45.3421C272.289 45.1292 272.448 44.863 272.713 44.863C272.871 44.863 272.977 44.9163 273.189 44.9163C273.454 44.9163 273.771 44.8098 274.142 44.3839L274.724 43.6919L274.671 43.1064L274.565 42.2014C274.406 40.9238 273.983 38.9543 273.242 38.9543C272.924 38.9543 272.713 39.1672 272.713 39.4866C272.713 39.6463 272.713 39.7527 272.765 39.9124V39.9657Z" fill="#979797"/>
<path d="M25.9316 29.9584L29.4782 27.563V31.0763L25.9316 31.0231V29.9584Z" fill="white"/>
<path d="M25.9316 35.601L29.4782 33.2056V36.7189L25.9316 36.6657V35.601Z" fill="white"/>
<path d="M25.9316 41.2436L29.4782 38.8481V42.3615L25.9316 42.3082V41.2436Z" fill="white"/>
<path d="M50.7584 18.5665L48.0059 18.1406V21.6539L50.7584 19.6311V18.5665Z" fill="white"/>
<path d="M50.7584 24.2091L48.0059 23.7832V27.2965L50.7584 25.2737V24.2091Z" fill="white"/>
<path d="M50.7584 29.9049L48.0059 29.479V32.9923L50.7584 30.9695V29.9049Z" fill="white"/>
</g>
</svg>
