<svg width="229" height="41" viewBox="0 0 229 41" fill="none" xmlns="http://www.w3.org/2000/svg">
<path d="M168.714 39.4024C170.822 39.4024 172.53 37.6844 172.53 35.5652C172.53 33.446 170.822 31.728 168.714 31.728C166.607 31.728 164.898 33.446 164.898 35.5652C164.898 37.6844 166.607 39.4024 168.714 39.4024Z" stroke="#A6A6A6"/>
<path d="M168.481 35.2187C168.718 35.2187 168.891 35.171 168.994 35.08C169.098 34.9932 169.154 34.8458 169.154 34.6377C169.154 34.4339 169.098 34.2908 168.994 34.1998C168.891 34.1131 168.718 34.0697 168.481 34.0697H167.998V35.2187H168.481ZM167.998 36.0122V37.7031H166.852V33.2329H168.602C169.188 33.2329 169.615 33.3326 169.887 33.5321C170.163 33.7272 170.296 34.0394 170.296 34.4686C170.296 34.7634 170.228 35.0063 170.085 35.197C169.943 35.3835 169.732 35.5265 169.443 35.6133C169.602 35.6523 169.74 35.7347 169.865 35.8604C169.99 35.9861 170.115 36.1769 170.24 36.4371L170.866 37.7031H169.645L169.102 36.5932C168.994 36.372 168.882 36.2159 168.77 36.1379C168.658 36.0555 168.507 36.0122 168.322 36.0122H167.998Z" fill="#A6A6A6"/>
<path d="M0 39.4364V12.7499H3.907C4.7348 12.7499 5.27801 13.1408 5.53664 13.9225L5.95127 15.9022C6.40539 15.39 6.8936 14.9095 7.41252 14.464C7.91499 14.0328 8.46122 13.656 9.04216 13.3399C9.63317 13.0213 10.2583 12.7713 10.9055 12.5947C11.6187 12.4055 12.3539 12.3132 13.0914 12.3202C14.7648 12.3202 16.1406 12.7772 17.2186 13.6912C18.2967 14.6053 19.1029 15.8191 19.6375 17.3329C20.0514 16.4452 20.5688 15.6838 21.1898 15.0488C21.7889 14.4298 22.4779 13.906 23.2334 13.495C23.9794 13.0935 24.7758 12.7949 25.6011 12.6074C26.4287 12.4171 27.2749 12.3208 28.1238 12.3201C29.5896 12.3201 30.8919 12.5457 32.0308 12.9967C33.1687 13.448 34.1258 14.1074 34.9022 14.975C35.6781 15.8425 36.2688 16.9007 36.6742 18.1496C37.0793 19.3983 37.2821 20.8295 37.2825 22.4433V39.4364H30.8921V22.456C30.8921 20.7567 30.5212 19.4782 29.7795 18.6204C29.0377 17.7625 27.951 17.3334 26.5194 17.3329C25.8955 17.327 25.2763 17.4417 24.6954 17.6708C24.1426 17.891 23.6407 18.2231 23.2208 18.6465C22.798 19.0717 22.466 19.6048 22.2247 20.2458C21.9828 20.8873 21.8622 21.6241 21.8627 22.4561V39.4364H15.4464V22.456C15.4464 20.6702 15.0884 19.3701 14.3723 18.5556C13.6558 17.7411 12.5993 17.3335 11.2028 17.3331C10.2889 17.3331 9.43096 17.5889 8.62887 18.1006C7.82629 18.6123 7.08032 19.3118 6.39096 20.1989V39.4364H0Z" fill="#A6A6A6"/>
<path d="M54.5364 12.3203C56.2098 12.3203 57.7492 12.5891 59.1546 13.1267C60.5603 13.6638 61.772 14.448 62.79 15.4793C63.8079 16.5107 64.6014 17.7761 65.1703 19.2754C65.7393 20.7747 66.0238 22.4866 66.0241 24.4112C66.0287 24.8152 66.0071 25.2191 65.9595 25.6203C65.9165 25.9411 65.8389 26.1922 65.7266 26.3737C65.6215 26.5496 65.4625 26.6865 65.2734 26.7638C65.0835 26.8421 64.8422 26.8812 64.5495 26.8809H48.1461C48.336 29.626 49.0691 31.641 50.3455 32.926C51.6213 34.2112 53.3115 34.8537 55.4162 34.8534C56.4511 34.8534 57.3436 34.7319 58.0939 34.4887C58.7709 34.2761 59.4287 34.0061 60.0603 33.6816C60.6211 33.3869 61.1126 33.1179 61.535 32.8745C61.9577 32.6313 62.3674 32.5097 62.7641 32.5097C62.9982 32.5041 63.2299 32.5591 63.4368 32.6694C63.6323 32.7811 63.8004 32.9356 63.9286 33.1214L65.7912 35.5158C65.1039 36.3181 64.3016 37.013 63.4108 37.5776C62.5457 38.1257 61.6211 38.5726 60.6552 38.9098C59.7061 39.2404 58.7269 39.4762 57.7319 39.614C56.776 39.7474 55.8123 39.8157 54.8472 39.8184C53.0017 39.8184 51.2855 39.5105 49.6986 38.8949C48.1381 38.297 46.7256 37.3649 45.559 36.1633C44.3856 34.9579 43.4626 33.4662 42.79 31.6884C42.1175 29.9107 41.7812 27.8511 41.7812 25.5099C41.7812 23.6891 42.0745 21.9764 42.661 20.3719C43.247 18.7681 44.0879 17.372 45.1837 16.1835C46.2786 14.996 47.6152 14.0551 49.1937 13.3609C50.772 12.6672 52.553 12.3203 54.5364 12.3203ZM54.6662 16.9033C52.8029 16.9033 51.3454 17.4344 50.2936 18.4966C49.241 19.5588 48.5682 21.0646 48.2752 23.014H60.2806C60.2855 22.2139 60.172 21.4175 59.9439 20.6509C59.7343 19.9383 59.3822 19.2763 58.909 18.7055C58.4291 18.1379 57.8275 17.687 57.1495 17.3867C56.442 17.0644 55.6142 16.9033 54.6662 16.9033Z" fill="#A6A6A6"/>
<path d="M89.9029 39.4362C89.0743 39.4362 88.5308 39.0459 88.2725 38.2651L87.7547 35.6894C87.2205 36.2957 86.641 36.86 86.0212 37.3775C85.4182 37.8791 84.7634 38.3143 84.0681 38.6754C83.3535 39.0452 82.5978 39.3287 81.8169 39.5198C80.9654 39.7243 80.0924 39.8245 79.217 39.8182C77.7675 39.8182 76.4393 39.5146 75.2323 38.9074C74.0247 38.3002 72.9855 37.4193 72.1147 36.2646C71.2438 35.1106 70.5713 33.6832 70.0971 31.9824C69.6223 30.2816 69.3852 28.338 69.3857 26.1514C69.3857 24.1732 69.653 22.3335 70.1876 20.6322C70.7217 18.9315 71.4891 17.4566 72.49 16.2074C73.4628 14.9799 74.6899 13.9805 76.0861 13.2789C77.4835 12.5762 79.0533 12.2246 80.7954 12.2241C82.2782 12.2241 83.5458 12.465 84.5984 12.9469C85.6418 13.4226 86.5958 14.0757 87.4185 14.8774V0.76709H93.8088V39.4362H89.9029ZM81.3904 34.71C82.7182 34.71 83.8479 34.4367 84.7796 33.8902C85.7112 33.3442 86.591 32.5672 87.4188 31.5592V19.7764C86.694 18.8134 85.9048 18.1336 85.0511 17.737C84.1872 17.338 83.2468 17.1348 82.2962 17.1418C81.3304 17.1418 80.4549 17.3238 79.6696 17.6878C78.8766 18.0582 78.1908 18.6262 77.6772 19.3378C77.1343 20.0748 76.7162 21.0105 76.4229 22.1449C76.1292 23.2802 75.9825 24.6187 75.983 26.1603C75.983 27.7192 76.1081 29.0403 76.3583 30.1234C76.6085 31.2065 76.9663 32.0902 77.4316 32.7745C77.8975 33.4592 78.4667 33.953 79.1392 34.2559C79.8117 34.5587 80.5622 34.7101 81.3905 34.71H81.3904Z" fill="#A6A6A6"/>
<path d="M108.477 4.93544C108.48 5.47562 108.365 6.00992 108.14 6.50039C107.701 7.46994 106.916 8.23815 105.94 8.6524C105.434 8.87127 104.888 8.98226 104.337 8.97837C103.798 8.98143 103.265 8.87036 102.772 8.6524C102.294 8.44497 101.859 8.14855 101.491 7.77876C101.126 7.40987 100.832 6.97643 100.624 6.50025C100.407 6.00758 100.297 5.47411 100.301 4.93529C100.297 4.37987 100.407 3.82964 100.624 3.31887C101.031 2.33961 101.801 1.55836 102.772 1.14099C103.265 0.923381 103.798 0.812331 104.337 0.815023C104.888 0.811498 105.434 0.922471 105.94 1.14099C106.426 1.34876 106.869 1.64516 107.247 2.0152C107.624 2.38911 107.927 2.83158 108.14 3.31911C108.365 3.82773 108.48 4.37874 108.477 4.93544ZM107.52 12.7499V39.4363H101.129V12.7499H107.52Z" fill="#A6A6A6"/>
<path d="M120.584 12.7495V29.7239C120.584 31.356 120.959 32.6189 121.709 33.5125C122.459 34.4061 123.585 34.8529 125.085 34.8529C126.164 34.859 127.229 34.6048 128.189 34.1115C129.155 33.6177 130.07 32.9369 130.932 32.0691V12.7495H137.323V39.436H133.417C132.588 39.436 132.045 39.0518 131.786 38.2835L131.346 36.183C130.809 36.72 130.238 37.2233 129.639 37.6898C129.056 38.1422 128.427 38.5308 127.763 38.8489C127.076 39.1743 126.356 39.4247 125.616 39.5956C124.805 39.7803 123.976 39.8709 123.145 39.8657C121.695 39.8657 120.415 39.6185 119.303 39.1242C118.219 38.6517 117.259 37.9347 116.496 37.0289C115.736 36.127 115.163 35.0559 114.775 33.8154C114.387 32.5749 114.193 31.2087 114.193 29.7165V12.7495H120.584Z" fill="#A6A6A6"/>
<path d="M159.908 17.9439C159.735 18.2199 159.554 18.414 159.364 18.5263C159.174 18.6382 158.933 18.6942 158.64 18.6942C158.33 18.6942 157.998 18.6074 157.644 18.4339C157.29 18.2601 156.881 18.0643 156.415 17.8467C155.9 17.6107 155.368 17.4144 154.824 17.2595C154.229 17.0857 153.526 16.9986 152.715 16.9984C151.456 16.9984 150.464 17.2677 149.74 17.8062C149.015 18.3448 148.653 19.048 148.653 19.9157C148.653 20.4886 148.839 20.9705 149.21 21.3614C149.58 21.7522 150.072 22.0951 150.684 22.39C151.357 22.7085 152.053 22.9741 152.767 23.1844C153.543 23.4186 154.336 23.6748 155.147 23.9528C155.958 24.2303 156.752 24.547 157.528 24.9031C158.285 25.2476 158.987 25.7042 159.611 26.2577C160.226 26.8091 160.727 27.4773 161.085 28.224C161.456 28.9878 161.642 29.908 161.642 30.9847C161.642 32.2699 161.409 33.455 160.943 34.5398C160.481 35.6201 159.782 36.5816 158.899 37.3527C158.002 38.1427 156.893 38.759 155.574 39.2019C154.254 39.6443 152.741 39.8655 151.034 39.8657C150.136 39.8671 149.239 39.7857 148.356 39.6225C147.503 39.4652 146.663 39.2382 145.847 38.9437C145.076 38.6684 144.332 38.3257 143.621 37.9196C142.98 37.5558 142.377 37.1266 141.823 36.6388L143.298 34.1631C143.467 33.8858 143.697 33.6515 143.971 33.4783C144.229 33.3202 144.556 33.2411 144.953 33.2411C145.353 33.2423 145.744 33.3599 146.079 33.5798C146.432 33.8057 146.842 34.0492 147.308 34.3102C147.834 34.5985 148.384 34.8425 148.951 35.0397C149.581 35.2656 150.378 35.3785 151.344 35.3783C152.103 35.3783 152.754 35.2871 153.297 35.1046C153.84 34.9226 154.289 34.6839 154.643 34.3885C154.981 34.1137 155.247 33.7604 155.419 33.3591C155.581 32.9762 155.665 32.5641 155.665 32.1478C155.665 31.5227 155.48 31.0102 155.109 30.6105C154.738 30.2115 154.246 29.8641 153.633 29.5685C152.957 29.2486 152.256 28.983 151.538 28.774C150.753 28.5398 149.951 28.2835 149.132 28.005C148.312 27.7269 147.508 27.4006 146.726 27.0278C145.959 26.6664 145.252 26.1875 144.63 25.6083C144.017 25.0354 143.526 24.3321 143.155 23.4982C142.785 22.6644 142.599 21.6569 142.599 20.4757C142.595 19.3994 142.815 18.3342 143.246 17.3488C143.681 16.3536 144.331 15.4681 145.148 14.7565C145.985 14.0181 147.028 13.4276 148.278 12.9849C149.529 12.5419 150.973 12.3203 152.612 12.3203C154.44 12.3203 156.104 12.6254 157.605 13.2356C159.106 13.8458 160.357 14.6479 161.357 15.6419L159.908 17.9439Z" fill="#A6A6A6"/>
<path d="M210.958 4.54077C210.671 4.60431 210.684 4.59237 210.958 4.54077V4.54077ZM225.218 30.9936C224.468 31.0039 222.75 31.2744 221.415 31.3902C218.882 31.6099 214.137 31.9609 211.201 31.9609L204.864 31.8643C204.863 31.8643 204.861 31.8645 204.86 31.865C204.859 31.8654 204.858 31.8662 204.857 31.8671C204.767 31.9649 202.396 34.5382 202.266 34.6695L202.265 34.6704C201.608 35.546 200.934 36.4296 200.152 37.1852C197.676 39.576 198.134 39.5131 198.134 39.5071C204.953 40.9613 213.19 39.1672 212.657 39.3097C215.982 38.452 218.796 37.2713 221.193 35.5405C222.445 34.6361 224.621 32.9183 225.132 31.3814C225.132 31.3808 225.132 31.3802 225.133 31.3796C225.201 31.2789 225.223 31.055 225.227 31.0039C225.227 31.0026 225.227 31.0013 225.227 31C225.226 30.9987 225.226 30.9976 225.225 30.9966C225.224 30.9956 225.223 30.9949 225.221 30.9943C225.22 30.9938 225.219 30.9936 225.218 30.9936ZM197.757 31.0294C196.956 30.8565 196.173 30.6855 195.558 30.5334L195.557 30.5331C193.733 29.8771 193.506 29.8991 193.411 29.9694C193.385 29.9894 193.364 30.0151 193.349 30.0446C193.335 30.0741 193.327 30.1066 193.327 30.1395C193.308 31.1854 193.531 32.7467 193.809 35.2327C193.809 35.2344 193.81 35.236 193.811 35.2375C193.812 35.2389 193.813 35.24 193.814 35.2407C193.816 35.2414 193.818 35.2417 193.82 35.2415C193.821 35.2413 193.823 35.2407 193.824 35.2396C194.519 34.6833 197.2 31.9346 198.034 31.3833C198.035 31.3824 198.036 31.3811 198.037 31.3796C198.038 31.3782 198.038 31.3765 198.038 31.3749C198.037 31.2937 198.008 31.2153 197.957 31.1526C197.906 31.0898 197.836 31.0464 197.757 31.0294ZM228.879 11.8378C228.841 9.39406 228.108 7.45605 228.015 5.1698C228.014 5.16768 228.014 5.16566 228.012 5.16403C228.011 5.16239 228.009 5.16125 228.007 5.16078C219.57 3.14408 212.298 4.28891 210.965 4.53957C209.13 4.95855 207.264 5.26326 205.628 5.9366C202.595 7.1852 199.659 9.05597 197.846 11.5478C197.337 12.248 196.847 13.0448 196.405 13.7729C196.244 14.0371 196.045 14.3711 195.772 14.8069C195.681 14.9521 195.471 15.4767 195.399 15.5231C195.398 15.5241 195.396 15.5256 195.396 15.5273C195.395 15.529 195.395 15.531 195.395 15.5328C195.395 15.5347 195.396 15.5365 195.397 15.5378C195.399 15.5392 195.4 15.5402 195.402 15.5406C199.632 16.4522 204.56 17.1602 209.567 17.159C204.768 17.1602 225.636 17.5126 228.782 14.5478C228.783 14.5472 228.783 14.5466 228.784 14.5459C229.2 13.9333 228.891 12.6283 228.879 11.8379L228.879 11.8378ZM211.001 4.53118C211.058 4.51837 211.124 4.50327 211.201 4.48524C211.134 4.50087 211.068 4.51593 211.001 4.53118ZM210.958 4.54077L210.965 4.53943L211.001 4.53118L210.958 4.54077Z" fill="#A6A6A6"/>
<path fill-rule="evenodd" clip-rule="evenodd" d="M211.177 19.5913C207.76 19.7986 199.829 19.4071 194.585 17.9549C194.12 19.3259 193.434 25.382 193.434 25.752C193.885 26.7437 199.824 27.6802 201.298 27.7735C201.415 27.7729 204.986 24.5333 208.3 22.0941C211.625 19.647 211.177 19.7281 211.177 19.5913ZM225.468 18.436C221.92 19.3601 215.801 19.5843 216.26 19.5913C215.54 19.5806 214.423 19.6022 214.054 19.6876C213.518 20.2494 211.89 22.3905 211.465 22.9604C210.311 24.5066 208.238 27.0739 207.436 28.351C220.666 28.3969 226.34 27.0572 227.002 26.6183C227.587 26.231 228.592 22.5455 228.824 17.5698C227.51 17.8306 226.586 18.1448 225.468 18.4362V18.436Z" fill="#A6A6A6"/>
</svg>
