<svg width="253" height="55" viewBox="0 0 253 55" fill="none" xmlns="http://www.w3.org/2000/svg">
<path d="M59.43 32.1C59.43 33 59.25 33.87 58.89 34.71C58.53 35.55 58.05 36.3 57.45 36.96C55.41 39.54 52.86 41.91 49.8 44.07C46.8 46.17 43.56 48 40.08 49.56C36.6 51.12 33.03 52.32 29.37 53.16C25.71 54.06 22.26 54.51 19.02 54.51C16.8 54.51 14.61 54.21 12.45 53.61C10.35 53.01 8.46 52.11 6.78 50.91C5.1 49.65 3.75 48.09 2.73 46.23C1.71 44.37 1.2 42.21 1.2 39.75C1.2 38.91 1.41 38.07 1.83 37.23C2.19 36.39 2.88 35.97 3.9 35.97C4.92 35.97 5.52 36.36 5.7 37.14C5.94 37.86 6.06 38.61 6.06 39.39C6.06 41.25 6.48 42.84 7.32 44.16C8.16 45.48 9.21 46.56 10.47 47.4C11.79 48.18 13.26 48.78 14.88 49.2C16.56 49.56 18.21 49.74 19.83 49.74C22.41 49.74 25.23 49.41 28.29 48.75C31.41 48.03 34.47 47.07 37.47 45.87C40.53 44.61 43.38 43.14 46.02 41.46C48.72 39.78 50.91 37.95 52.59 35.97C52.95 35.55 53.25 35.13 53.49 34.71C53.79 34.23 53.94 33.72 53.94 33.18C53.94 32.28 53.61 31.53 52.95 30.93C52.35 30.27 51.6 29.73 50.7 29.31C49.86 28.89 48.96 28.59 48 28.41C47.04 28.17 46.23 27.99 45.57 27.87C42.39 27.39 39.18 27.09 35.94 26.97C32.76 26.79 29.55 26.58 26.31 26.34C23.13 26.1 19.98 25.68 16.86 25.08C13.74 24.48 10.68 23.49 7.68 22.11C6.9 21.75 6.09 21.3 5.25 20.76C4.41 20.22 3.63 19.62 2.91 18.96C2.19 18.3 1.59 17.55 1.11 16.71C0.63 15.87 0.39 14.97 0.39 14.01C0.39 12.21 1.05 10.65 2.37 9.33C3.69 7.95 5.4 6.78 7.5 5.82C9.66 4.8 12.03 3.96 14.61 3.3C17.19 2.64 19.74 2.13 22.26 1.77C24.84 1.35 27.24 1.08 29.46 0.959995C31.68 0.779997 33.45 0.689999 34.77 0.689999C36.21 0.689999 38.22 0.809999 40.8 1.05C43.38 1.29 45.93 1.77 48.45 2.49C50.97 3.15 53.16 4.11 55.02 5.37C56.88 6.63 57.81 8.25 57.81 10.23C57.81 10.83 57.63 11.43 57.27 12.03C56.97 12.63 56.58 13.2 56.1 13.74C55.62 14.22 55.08 14.64 54.48 15C53.88 15.3 53.28 15.45 52.68 15.45C52.02 15.45 51.42 15.24 50.88 14.82C50.4 14.4 50.16 13.83 50.16 13.11C50.16 12.45 50.34 11.91 50.7 11.49C51.12 11.01 51.51 10.53 51.87 10.05C51.09 9.03 49.92 8.19 48.36 7.53C46.8 6.87 45.12 6.36 43.32 6C41.52 5.64 39.72 5.4 37.92 5.28C36.18 5.1 34.71 5.01 33.51 5.01C31.65 5.01 29.58 5.13 27.3 5.37C25.08 5.55 22.83 5.88 20.55 6.36C18.27 6.78 16.05 7.32 13.89 7.98C11.79 8.64 9.93 9.45 8.31 10.41C7.77 10.71 7.17 11.13 6.51 11.67C5.91 12.15 5.61 12.78 5.61 13.56C5.61 14.64 6.36 15.66 7.86 16.62C9.42 17.52 11.19 18.33 13.17 19.05C15.21 19.77 17.19 20.34 19.11 20.76C21.09 21.18 22.53 21.45 23.43 21.57C26.67 22.05 29.91 22.35 33.15 22.47C36.45 22.59 39.75 22.74 43.05 22.92C44.37 23.04 45.96 23.25 47.82 23.55C49.74 23.79 51.54 24.24 53.22 24.9C54.96 25.56 56.43 26.49 57.63 27.69C58.83 28.83 59.43 30.3 59.43 32.1ZM92.5535 37.05C92.5535 37.29 92.4935 37.65 92.3735 38.13C91.7135 39.75 90.7235 41.31 89.4035 42.81C88.0835 44.25 86.5835 45.54 84.9035 46.68C83.2835 47.76 81.5135 48.63 79.5935 49.29C77.7335 49.95 75.9335 50.28 74.1935 50.28C72.3935 50.28 70.7135 49.98 69.1535 49.38C67.5935 48.72 66.2435 47.85 65.1035 46.77C63.9635 45.63 63.0635 44.28 62.4035 42.72C61.7435 41.16 61.4135 39.48 61.4135 37.68C61.4135 35.94 61.7735 34.08 62.4935 32.1C63.2135 30.12 64.2035 28.29 65.4635 26.61C66.7235 24.93 68.1935 23.55 69.8735 22.47C71.5535 21.33 73.3535 20.76 75.2735 20.76C75.9935 20.76 76.7135 20.91 77.4335 21.21C78.1535 21.51 78.7835 21.9 79.3235 22.38C80.1035 22.32 80.6435 22.59 80.9435 23.19C81.2435 23.73 81.3335 24.33 81.2135 24.99C81.4535 25.59 81.6035 26.19 81.6635 26.79C81.7235 27.39 81.7535 28.02 81.7535 28.68C81.7535 29.28 81.6935 30.09 81.5735 31.11C81.4535 32.13 81.2435 33.15 80.9435 34.17C80.6435 35.13 80.2235 35.97 79.6835 36.69C79.1435 37.41 78.4835 37.77 77.7035 37.77C77.1035 37.77 76.6235 37.59 76.2635 37.23C75.9035 36.87 75.6335 36.42 75.4535 35.88C75.2735 35.34 75.1535 34.77 75.0935 34.17C75.0935 33.57 75.0935 33.03 75.0935 32.55C75.0935 30.33 75.4835 28.32 76.2635 26.52C75.6635 25.8 75.0035 25.44 74.2835 25.44C73.0835 25.44 72.0035 25.86 71.0435 26.7C70.0835 27.48 69.2435 28.47 68.5235 29.67C67.8035 30.81 67.2335 32.04 66.8135 33.36C66.4535 34.68 66.2735 35.82 66.2735 36.78C66.2735 39.48 67.0835 41.67 68.7035 43.35C70.3835 45.03 72.5735 45.87 75.2735 45.87C76.7135 45.87 78.0935 45.6 79.4135 45.06C80.7335 44.52 81.9635 43.8 83.1035 42.9C84.3035 42 85.3835 40.98 86.3435 39.84C87.3035 38.7 88.1135 37.53 88.7735 36.33L88.8635 36.15C89.4035 35.43 90.0035 35.07 90.6635 35.07C91.2635 35.07 91.7135 35.28 92.0135 35.7C92.3735 36.06 92.5535 36.51 92.5535 37.05ZM116.746 37.32C116.746 37.5 116.686 37.71 116.566 37.95C116.146 39.33 115.516 40.74 114.676 42.18C113.836 43.62 112.846 44.94 111.706 46.14C110.566 47.34 109.276 48.33 107.836 49.11C106.456 49.89 104.986 50.28 103.426 50.28C102.166 50.28 101.116 50.04 100.276 49.56C99.4959 49.08 98.8659 48.45 98.3859 47.67C97.9059 46.89 97.5759 46.02 97.3959 45.06C97.2159 44.04 97.1259 42.99 97.1259 41.91C97.1259 41.07 97.1559 40.26 97.2159 39.48C97.2759 38.64 97.3659 37.8 97.4859 36.96C96.6459 37.44 95.8059 37.83 94.9659 38.13C94.1259 38.43 93.1959 38.52 92.1759 38.4C91.7559 39.12 91.1859 39.48 90.4659 39.48C89.9859 39.48 89.5359 39.33 89.1159 39.03C88.6359 38.67 88.3959 38.22 88.3959 37.68C88.3959 37.38 88.4559 37.08 88.5759 36.78C88.6959 36.48 88.8159 36.18 88.9359 35.88C88.6959 35.4 88.5759 34.83 88.5759 34.17C88.5759 33.51 88.7259 32.58 89.0259 31.38C89.2659 30.18 89.6259 29.01 90.1059 27.87C90.6459 26.67 91.2459 25.65 91.9059 24.81C92.5659 23.91 93.3159 23.46 94.1559 23.46C94.8159 23.46 95.3259 23.73 95.6859 24.27C96.1059 24.81 96.3159 25.38 96.3159 25.98C96.3159 27.36 96.0159 28.71 95.4159 30.03C94.8159 31.29 94.2459 32.52 93.7059 33.72C93.8259 33.72 93.9159 33.75 93.9759 33.81C94.0959 33.81 94.2159 33.81 94.3359 33.81C95.7159 33.81 96.7359 33.45 97.3959 32.73C98.0559 31.95 98.5959 31.14 99.0159 30.3C99.4959 29.4 99.9459 28.59 100.366 27.87C100.846 27.09 101.566 26.7 102.526 26.7C103.186 26.7 103.696 26.97 104.056 27.51C104.476 27.99 104.686 28.56 104.686 29.22C104.686 29.88 104.536 30.42 104.236 30.84C103.996 31.2 103.666 31.62 103.246 32.1C103.066 32.34 102.856 32.85 102.616 33.63C102.436 34.35 102.256 35.16 102.076 36.06C101.956 36.96 101.836 37.83 101.716 38.67C101.656 39.51 101.626 40.11 101.626 40.47C101.626 41.01 101.656 41.58 101.716 42.18C101.836 42.72 101.986 43.23 102.166 43.71C102.406 44.19 102.736 44.58 103.156 44.88C103.576 45.18 104.116 45.33 104.776 45.33C106.276 45.33 107.476 44.82 108.376 43.8C109.336 42.78 110.146 41.67 110.806 40.47C111.526 39.21 112.186 38.07 112.786 37.05C113.386 36.03 114.076 35.52 114.856 35.52C115.336 35.52 115.756 35.7 116.116 36.06C116.536 36.42 116.746 36.84 116.746 37.32ZM122.47 18.87C122.47 20.19 122.02 21.42 121.12 22.56C120.22 23.64 119.08 24.18 117.7 24.18C116.86 24.18 116.14 23.94 115.54 23.46C115 22.98 114.73 22.32 114.73 21.48C114.73 20.82 114.82 20.13 115 19.41C115.18 18.63 115.45 17.94 115.81 17.34C116.23 16.68 116.74 16.14 117.34 15.72C117.94 15.3 118.63 15.09 119.41 15.09C120.43 15.09 121.18 15.51 121.66 16.35C122.2 17.13 122.47 17.97 122.47 18.87ZM131.92 36.87C131.92 37.77 131.62 38.79 131.02 39.93C130.42 41.01 129.67 42.12 128.77 43.26C127.93 44.34 127.03 45.36 126.07 46.32C125.11 47.22 124.3 47.94 123.64 48.48C121.9 49.74 120.04 50.37 118.06 50.37C116.86 50.37 115.87 50.13 115.09 49.65C114.31 49.17 113.71 48.54 113.29 47.76C112.81 46.92 112.48 46.02 112.3 45.06C112.12 44.04 112.03 43.02 112.03 42C112.03 41.28 112.06 40.17 112.12 38.67C112.18 37.11 112.36 35.58 112.66 34.08C112.96 32.52 113.38 31.17 113.92 30.03C114.52 28.83 115.33 28.23 116.35 28.23C117.01 28.23 117.52 28.47 117.88 28.95C118.3 29.37 118.51 29.91 118.51 30.57C118.51 31.23 118.42 32.01 118.24 32.91C118.06 33.75 117.85 34.68 117.61 35.7C117.43 36.66 117.25 37.68 117.07 38.76C116.89 39.78 116.8 40.77 116.8 41.73C116.8 42.15 116.8 42.6 116.8 43.08C116.86 43.56 116.95 44.01 117.07 44.43C117.19 44.79 117.4 45.12 117.7 45.42C118.06 45.66 118.51 45.78 119.05 45.78C119.95 45.78 120.85 45.42 121.75 44.7C122.65 43.92 123.49 43.02 124.27 42C125.11 40.98 125.86 39.93 126.52 38.85C127.18 37.77 127.69 36.9 128.05 36.24C128.29 35.94 128.56 35.67 128.86 35.43C129.22 35.13 129.61 34.98 130.03 34.98C130.57 34.98 131.02 35.16 131.38 35.52C131.74 35.88 131.92 36.33 131.92 36.87ZM159.275 36.78C159.275 37.14 159.185 37.5 159.005 37.86C157.805 39.9 156.065 41.34 153.785 42.18C151.565 42.96 149.345 43.17 147.125 42.81C146.585 43.89 145.955 45 145.235 46.14C144.515 47.22 143.675 48.21 142.715 49.11C141.815 49.95 140.795 50.64 139.655 51.18C138.515 51.72 137.285 51.99 135.965 51.99C134.165 51.99 132.725 51.51 131.645 50.55C130.565 49.53 129.725 48.3 129.125 46.86C128.525 45.42 128.135 43.89 127.955 42.27C127.775 40.59 127.685 39.06 127.685 37.68C127.685 36.42 127.835 34.68 128.135 32.46C128.435 30.24 128.855 27.81 129.395 25.17C129.995 22.53 130.715 19.86 131.555 17.16C132.455 14.4 133.445 11.91 134.525 9.69C135.605 7.47 136.805 5.67 138.125 4.29C139.505 2.85 140.975 2.13 142.535 2.13C143.615 2.13 144.515 2.4 145.235 2.94C145.955 3.48 146.525 4.17 146.945 5.01C147.425 5.85 147.755 6.75 147.935 7.71C148.175 8.67 148.295 9.6 148.295 10.5C148.295 12.96 147.785 15.48 146.765 18.06C145.745 20.64 144.455 23.16 142.895 25.62C141.335 28.02 139.625 30.3 137.765 32.46C135.905 34.56 134.135 36.42 132.455 38.04C132.455 38.7 132.515 39.54 132.635 40.56C132.755 41.58 132.965 42.6 133.265 43.62C133.625 44.58 134.075 45.42 134.615 46.14C135.215 46.86 135.965 47.22 136.865 47.22C137.465 47.22 138.095 47.01 138.755 46.59C139.415 46.17 140.015 45.69 140.555 45.15C141.155 44.55 141.665 43.92 142.085 43.26C142.505 42.54 142.835 41.91 143.075 41.37C142.055 40.65 141.305 39.72 140.825 38.58C140.405 37.44 140.195 36.27 140.195 35.07C140.195 34.05 140.585 33.18 141.365 32.46C142.205 31.68 143.105 31.29 144.065 31.29C145.445 31.29 146.525 31.8 147.305 32.82C148.085 33.78 148.475 34.92 148.475 36.24C148.475 37.14 148.385 37.98 148.205 38.76C148.445 38.82 148.805 38.85 149.285 38.85C150.605 38.85 151.655 38.67 152.435 38.31C153.275 37.89 153.965 37.44 154.505 36.96C155.105 36.42 155.615 35.97 156.035 35.61C156.455 35.19 156.935 34.98 157.475 34.98C157.955 34.98 158.375 35.16 158.735 35.52C159.095 35.88 159.275 36.3 159.275 36.78ZM143.525 10.68C143.525 10.44 143.495 10.14 143.435 9.78C143.435 9.36 143.375 8.97 143.255 8.61C143.195 8.19 143.045 7.83 142.805 7.53C142.625 7.23 142.355 7.08 141.995 7.08C141.215 7.62 140.465 8.46 139.745 9.6C139.025 10.74 138.335 12.09 137.675 13.65C137.075 15.15 136.505 16.8 135.965 18.6C135.425 20.34 134.915 22.05 134.435 23.73C134.015 25.41 133.655 26.97 133.355 28.41C133.055 29.85 132.845 31.05 132.725 32.01C133.985 30.69 135.245 29.22 136.505 27.6C137.825 25.92 138.995 24.15 140.015 22.29C141.035 20.43 141.875 18.51 142.535 16.53C143.195 14.55 143.525 12.6 143.525 10.68ZM186.697 36.78C186.697 37.14 186.607 37.5 186.427 37.86C185.227 39.9 183.487 41.34 181.207 42.18C178.987 42.96 176.767 43.17 174.547 42.81C174.007 43.89 173.377 45 172.657 46.14C171.937 47.22 171.097 48.21 170.137 49.11C169.237 49.95 168.217 50.64 167.077 51.18C165.937 51.72 164.707 51.99 163.387 51.99C161.587 51.99 160.147 51.51 159.067 50.55C157.987 49.53 157.147 48.3 156.547 46.86C155.947 45.42 155.557 43.89 155.377 42.27C155.197 40.59 155.107 39.06 155.107 37.68C155.107 36.42 155.257 34.68 155.557 32.46C155.857 30.24 156.277 27.81 156.817 25.17C157.417 22.53 158.137 19.86 158.977 17.16C159.877 14.4 160.867 11.91 161.947 9.69C163.027 7.47 164.227 5.67 165.547 4.29C166.927 2.85 168.397 2.13 169.957 2.13C171.037 2.13 171.937 2.4 172.657 2.94C173.377 3.48 173.947 4.17 174.367 5.01C174.847 5.85 175.177 6.75 175.357 7.71C175.597 8.67 175.717 9.6 175.717 10.5C175.717 12.96 175.207 15.48 174.187 18.06C173.167 20.64 171.877 23.16 170.317 25.62C168.757 28.02 167.047 30.3 165.187 32.46C163.327 34.56 161.557 36.42 159.877 38.04C159.877 38.7 159.937 39.54 160.057 40.56C160.177 41.58 160.387 42.6 160.687 43.62C161.047 44.58 161.497 45.42 162.037 46.14C162.637 46.86 163.387 47.22 164.287 47.22C164.887 47.22 165.517 47.01 166.177 46.59C166.837 46.17 167.437 45.69 167.977 45.15C168.577 44.55 169.087 43.92 169.507 43.26C169.927 42.54 170.257 41.91 170.497 41.37C169.477 40.65 168.727 39.72 168.247 38.58C167.827 37.44 167.617 36.27 167.617 35.07C167.617 34.05 168.007 33.18 168.787 32.46C169.627 31.68 170.527 31.29 171.487 31.29C172.867 31.29 173.947 31.8 174.727 32.82C175.507 33.78 175.897 34.92 175.897 36.24C175.897 37.14 175.807 37.98 175.627 38.76C175.867 38.82 176.227 38.85 176.707 38.85C178.027 38.85 179.077 38.67 179.857 38.31C180.697 37.89 181.387 37.44 181.927 36.96C182.527 36.42 183.037 35.97 183.457 35.61C183.877 35.19 184.357 34.98 184.897 34.98C185.377 34.98 185.797 35.16 186.157 35.52C186.517 35.88 186.697 36.3 186.697 36.78ZM170.947 10.68C170.947 10.44 170.917 10.14 170.857 9.78C170.857 9.36 170.797 8.97 170.677 8.61C170.617 8.19 170.467 7.83 170.227 7.53C170.047 7.23 169.777 7.08 169.417 7.08C168.637 7.62 167.887 8.46 167.167 9.6C166.447 10.74 165.757 12.09 165.097 13.65C164.497 15.15 163.927 16.8 163.387 18.6C162.847 20.34 162.337 22.05 161.857 23.73C161.437 25.41 161.077 26.97 160.777 28.41C160.477 29.85 160.267 31.05 160.147 32.01C161.407 30.69 162.667 29.22 163.927 27.6C165.247 25.92 166.417 24.15 167.437 22.29C168.457 20.43 169.297 18.51 169.957 16.53C170.617 14.55 170.947 12.6 170.947 10.68ZM214.119 36.78C214.119 37.14 214.029 37.5 213.849 37.86C212.649 39.9 210.909 41.34 208.629 42.18C206.409 42.96 204.189 43.17 201.969 42.81C201.429 43.89 200.799 45 200.079 46.14C199.359 47.22 198.519 48.21 197.559 49.11C196.659 49.95 195.639 50.64 194.499 51.18C193.359 51.72 192.129 51.99 190.809 51.99C189.009 51.99 187.569 51.51 186.489 50.55C185.409 49.53 184.569 48.3 183.969 46.86C183.369 45.42 182.979 43.89 182.799 42.27C182.619 40.59 182.529 39.06 182.529 37.68C182.529 36.42 182.679 34.68 182.979 32.46C183.279 30.24 183.699 27.81 184.239 25.17C184.839 22.53 185.559 19.86 186.399 17.16C187.299 14.4 188.289 11.91 189.369 9.69C190.449 7.47 191.649 5.67 192.969 4.29C194.349 2.85 195.819 2.13 197.379 2.13C198.459 2.13 199.359 2.4 200.079 2.94C200.799 3.48 201.369 4.17 201.789 5.01C202.269 5.85 202.599 6.75 202.779 7.71C203.019 8.67 203.139 9.6 203.139 10.5C203.139 12.96 202.629 15.48 201.609 18.06C200.589 20.64 199.299 23.16 197.739 25.62C196.179 28.02 194.469 30.3 192.609 32.46C190.749 34.56 188.979 36.42 187.299 38.04C187.299 38.7 187.359 39.54 187.479 40.56C187.599 41.58 187.809 42.6 188.109 43.62C188.469 44.58 188.919 45.42 189.459 46.14C190.059 46.86 190.809 47.22 191.709 47.22C192.309 47.22 192.939 47.01 193.599 46.59C194.259 46.17 194.859 45.69 195.399 45.15C195.999 44.55 196.509 43.92 196.929 43.26C197.349 42.54 197.679 41.91 197.919 41.37C196.899 40.65 196.149 39.72 195.669 38.58C195.249 37.44 195.039 36.27 195.039 35.07C195.039 34.05 195.429 33.18 196.209 32.46C197.049 31.68 197.949 31.29 198.909 31.29C200.289 31.29 201.369 31.8 202.149 32.82C202.929 33.78 203.319 34.92 203.319 36.24C203.319 37.14 203.229 37.98 203.049 38.76C203.289 38.82 203.649 38.85 204.129 38.85C205.449 38.85 206.499 38.67 207.279 38.31C208.119 37.89 208.809 37.44 209.349 36.96C209.949 36.42 210.459 35.97 210.879 35.61C211.299 35.19 211.779 34.98 212.319 34.98C212.799 34.98 213.219 35.16 213.579 35.52C213.939 35.88 214.119 36.3 214.119 36.78ZM198.369 10.68C198.369 10.44 198.339 10.14 198.279 9.78C198.279 9.36 198.219 8.97 198.099 8.61C198.039 8.19 197.889 7.83 197.649 7.53C197.469 7.23 197.199 7.08 196.839 7.08C196.059 7.62 195.309 8.46 194.589 9.6C193.869 10.74 193.179 12.09 192.519 13.65C191.919 15.15 191.349 16.8 190.809 18.6C190.269 20.34 189.759 22.05 189.279 23.73C188.859 25.41 188.499 26.97 188.199 28.41C187.899 29.85 187.689 31.05 187.569 32.01C188.829 30.69 190.089 29.22 191.349 27.6C192.669 25.92 193.839 24.15 194.859 22.29C195.879 20.43 196.719 18.51 197.379 16.53C198.039 14.55 198.369 12.6 198.369 10.68ZM231.731 37.5C231.731 38.82 231.371 40.23 230.651 41.73C229.991 43.23 229.091 44.61 227.951 45.87C226.811 47.13 225.521 48.18 224.081 49.02C222.641 49.8 221.201 50.19 219.761 50.19C217.721 50.19 216.071 49.62 214.811 48.48C213.551 47.34 212.561 45.93 211.841 44.25C211.121 42.57 210.641 40.77 210.401 38.85C210.101 36.93 209.951 35.19 209.951 33.63C209.951 32.55 210.071 31.02 210.311 29.04C210.491 27.06 210.791 24.93 211.211 22.65C211.571 20.31 212.081 17.97 212.741 15.63C213.401 13.23 214.151 11.07 214.991 9.15C215.891 7.17 216.911 5.58 218.051 4.38C219.191 3.12 220.481 2.49 221.921 2.49C222.761 2.49 223.481 2.7 224.081 3.12C224.741 3.54 225.251 4.08 225.611 4.74C226.031 5.4 226.331 6.12 226.511 6.9C226.691 7.68 226.781 8.43 226.781 9.15C226.781 11.43 226.421 13.83 225.701 16.35C224.981 18.87 224.051 21.36 222.911 23.82C221.831 26.28 220.571 28.65 219.131 30.93C217.751 33.15 216.371 35.16 214.991 36.96C215.111 37.62 215.291 38.43 215.531 39.39C215.831 40.35 216.191 41.28 216.611 42.18C217.091 43.08 217.661 43.86 218.321 44.52C218.981 45.18 219.761 45.51 220.661 45.51C221.981 45.51 223.061 45 223.901 43.98C224.801 42.9 225.551 41.73 226.151 40.47C226.811 39.21 227.411 38.07 227.951 37.05C228.491 35.97 229.151 35.43 229.931 35.43C230.591 35.43 231.041 35.64 231.281 36.06C231.581 36.42 231.731 36.9 231.731 37.5ZM222.461 10.05C222.461 9.57 222.401 9.09 222.281 8.61C222.221 8.13 222.011 7.71 221.651 7.35C221.471 7.41 221.201 7.56 220.841 7.8C219.761 8.82 218.831 10.29 218.051 12.21C217.271 14.13 216.641 16.17 216.161 18.33C215.681 20.49 215.321 22.62 215.081 24.72C214.901 26.82 214.781 28.56 214.721 29.94C215.501 28.74 216.341 27.3 217.241 25.62C218.141 23.94 218.981 22.2 219.761 20.4C220.541 18.54 221.171 16.71 221.651 14.91C222.191 13.11 222.461 11.49 222.461 10.05ZM252.81 36.87C252.81 37.29 252.72 37.62 252.54 37.86C251.88 39.12 251.01 40.41 249.93 41.73C248.91 42.99 247.74 44.13 246.42 45.15C245.1 46.11 243.69 46.92 242.19 47.58C240.75 48.18 239.28 48.48 237.78 48.48C236.22 48.48 234.84 48.18 233.64 47.58C232.44 46.92 231.42 46.08 230.58 45.06C229.74 44.04 229.11 42.87 228.69 41.55C228.21 40.17 227.97 38.76 227.97 37.32C227.97 35.82 228.21 34.23 228.69 32.55C229.17 30.87 229.86 29.34 230.76 27.96C231.72 26.52 232.86 25.35 234.18 24.45C235.56 23.49 237.09 23.01 238.77 23.01C240.33 23.01 241.53 23.52 242.37 24.54C243.27 25.56 243.72 26.85 243.72 28.41C243.72 29.79 243.39 31.11 242.73 32.37C242.13 33.63 241.32 34.77 240.3 35.79C239.34 36.81 238.2 37.65 236.88 38.31C235.62 38.91 234.33 39.24 233.01 39.3C233.31 40.68 233.91 41.76 234.81 42.54C235.77 43.32 236.94 43.71 238.32 43.71C239.58 43.71 240.72 43.47 241.74 42.99C242.82 42.51 243.81 41.91 244.71 41.19C245.61 40.41 246.42 39.57 247.14 38.67C247.92 37.71 248.64 36.78 249.3 35.88C249.6 35.52 249.81 35.28 249.93 35.16C250.11 34.98 250.44 34.89 250.92 34.89C251.46 34.89 251.91 35.1 252.27 35.52C252.63 35.88 252.81 36.33 252.81 36.87ZM239.31 29.49C239.31 29.19 239.19 28.74 238.95 28.14C238.77 27.54 238.47 27.24 238.05 27.24C237.27 27.24 236.55 27.51 235.89 28.05C235.29 28.53 234.78 29.16 234.36 29.94C233.94 30.66 233.58 31.44 233.28 32.28C233.04 33.12 232.89 33.84 232.83 34.44C233.31 34.56 233.67 34.62 233.91 34.62C234.51 34.62 235.11 34.47 235.71 34.17C236.37 33.87 236.97 33.48 237.51 33C238.05 32.46 238.47 31.89 238.77 31.29C239.13 30.69 239.31 30.09 239.31 29.49Z" fill="#EA4C89"/>
</svg>
