<svg width="304" height="41" viewBox="0 0 304 41" fill="none" xmlns="http://www.w3.org/2000/svg">
<g clip-path="url(#clip0_230_596)">
<path d="M143.23 40.774C138.406 40.774 134.463 39.5906 131.813 37.3526C130.671 36.3941 129.756 35.1946 129.134 33.8403C128.511 32.4861 128.196 31.0106 128.211 29.5202C128.246 27.4719 128.714 25.4541 129.584 23.5995C130.454 21.745 131.707 20.0956 133.261 18.7598C136.427 15.9293 140.312 14.0259 144.489 13.2588L145.097 13.1471L144.795 12.6084C144.338 11.8007 144.024 10.9201 143.869 10.0056L143.819 9.72287L143.536 9.65501C142.023 9.23316 140.468 8.98415 138.9 8.91277C138.184 8.90229 137.472 9.00635 136.79 9.22097C135.648 9.58044 134.664 10.3186 133.999 11.3134C133.334 12.3083 133.028 13.5002 133.132 14.6923L132.749 14.8889C132.181 14.5128 131.72 13.9973 131.409 13.3918C131.098 12.7863 130.947 12.111 130.972 11.4307C130.994 9.99579 131.58 8.62738 132.605 7.62197C133.261 6.98106 134.043 6.48212 134.9 6.15618C135.758 5.83026 136.674 5.68434 137.59 5.72749C139.603 5.8158 141.592 6.20171 143.493 6.87266L143.929 7.01404L144.052 6.57435C144.677 4.62855 145.915 2.9371 147.58 1.7525C149.246 0.56791 151.251 -0.0462795 153.294 0.0016276C155.865 0.0016276 158.866 1.14256 158.866 4.35894C158.866 7.41273 155.452 10.7069 149.933 10.7069C149.202 10.7054 148.472 10.651 147.75 10.5443L146.919 10.4227L147.289 11.1762C147.863 12.3037 148.648 13.3114 149.599 14.1452L149.953 14.4859L149.466 14.5609C144.847 15.0543 140.487 16.9336 136.957 19.9516C135.691 21.083 134.674 22.4638 133.968 24.0073C133.263 25.5508 132.884 27.2238 132.856 28.9208C132.856 34.2663 137.583 38.6165 143.392 38.6165C147.399 38.8083 151.327 37.4585 154.37 34.8445C155.44 33.9055 156.31 32.7581 156.922 31.4722C157.536 30.1864 157.881 28.789 157.936 27.3656C157.936 23.9725 155.889 21.7783 152.72 21.7783C150.793 21.7094 148.915 22.3969 147.488 23.694C146.948 24.1796 146.51 24.7684 146.2 25.4256C145.891 26.0828 145.715 26.7953 145.686 27.5211C145.663 27.9133 145.724 28.3058 145.864 28.6728C146.004 29.0397 146.22 29.3729 146.499 29.6504C146.776 29.9278 147.109 30.1434 147.477 30.2828C147.845 30.4221 148.236 30.4821 148.629 30.459C149.373 30.4498 150.103 30.2408 150.739 29.8539L151.108 30.0843C151.073 30.4474 150.951 30.7967 150.755 31.1036C150.285 31.7305 149.669 32.2324 148.96 32.5654C148.252 32.8982 147.473 33.0517 146.691 33.0123C145.546 33.1039 144.403 32.823 143.43 32.2114C142.459 31.5999 141.711 30.6905 141.299 29.6192C140.51 27.2157 141.714 24.3994 144.365 22.4555C146.723 20.9187 149.273 19.6963 151.949 18.8192C153.544 18.249 155.11 17.5974 156.639 16.8668C158.275 16.095 159.739 15.0014 160.942 13.6513C162.147 12.3012 163.066 10.7223 163.646 9.0089C164.208 7.23038 164.31 5.33788 163.941 3.50925L164.365 3.30849C165.406 4.7394 165.943 6.47523 165.892 8.24404C165.865 12.7314 162.903 16.7946 157.974 19.1147L157.15 19.5035L157.966 19.9107C159.36 20.6072 160.532 21.6813 161.348 23.0105C162.162 24.3399 162.588 25.8713 162.577 27.4306C162.577 32.3195 159.235 35.4398 156.432 37.1971C152.439 39.5703 147.873 40.8072 143.23 40.774ZM146.948 7.95704C148.118 8.40868 149.358 8.65362 150.612 8.6809C154.107 8.6809 155.679 6.3227 155.679 4.65018C155.679 3.20246 154.435 2.23118 152.586 2.23118C151.129 2.23692 149.725 2.77309 148.635 3.73932C147.546 4.70553 146.846 6.0356 146.667 7.48059L146.617 7.83404L146.948 7.95704Z" fill="#A6A6A6"/>
<path d="M89.7616 16.7068C89.2614 17.5043 89.0378 18.4443 89.1254 19.3817V28.9036C89.1306 29.4739 89.1931 30.0423 89.312 30.6001C89.4569 31.1932 89.8154 31.7121 90.3187 32.0578C90.4036 32.1584 90.5016 32.2473 90.61 32.3221V32.9527H83.2462V32.3221C83.609 32.1272 83.9254 31.8561 84.1737 31.5276C84.6846 30.7534 84.9179 29.8289 84.8354 28.905V25.1613H75.6702V28.9036C75.6749 29.4739 75.7369 30.0423 75.8554 30.6001C75.947 30.9696 76.1176 31.3148 76.3553 31.612C76.5931 31.9093 76.8923 32.1515 77.2326 32.3221V32.9527H69.7627V32.3221C70.1371 32.134 70.4633 31.8621 70.7157 31.5276C71.2274 30.7533 71.4611 29.8281 71.3788 28.9036V19.3548C71.3753 18.776 71.3132 18.199 71.1936 17.6328C71.089 17.2616 70.9074 16.9166 70.661 16.6198C70.4145 16.3232 70.1084 16.0818 69.7627 15.9108V15.2803H77.2326V15.9108C76.8702 16.1394 76.5557 16.4362 76.3065 16.7845C75.8346 17.5647 75.6125 18.4704 75.6702 19.3803V21.9011H84.8354V19.3817C84.8349 18.8027 84.7728 18.2255 84.6502 17.6597C84.5519 17.2749 84.3673 16.9176 84.1102 16.6148C83.8533 16.3119 83.5306 16.0717 83.167 15.9122V15.2817H90.7147V15.9122C90.3453 16.1082 90.0207 16.3788 89.7616 16.7068Z" fill="#A6A6A6"/>
<path d="M110.417 18.4713C112.528 18.4247 114.62 18.8772 116.524 19.7917H116.994C116.549 18.5343 116.236 17.2343 116.058 15.9123V15.2817H98.7883V15.9123C98.6458 17.2277 98.3423 18.5206 97.8848 19.762H98.3698C100.275 18.821 102.384 18.3688 104.508 18.4458C104.72 18.4458 104.88 18.4458 105.25 18.4727V28.2137C105.316 29.0306 105.198 29.8517 104.905 30.6172C104.592 31.2946 104.108 31.8792 103.501 32.3137V32.9443H111.372V32.3137C110.993 32.0165 110.639 31.6888 110.313 31.3339C110.129 31.109 109.978 30.8592 109.864 30.5917C109.612 29.8234 109.504 29.0153 109.546 28.208V18.467L110.417 18.4713Z" fill="#A6A6A6"/>
<path d="M209.201 33.3446C202.765 33.3446 198.817 29.902 198.817 24.3133C198.817 18.5931 202.976 14.9102 209.412 14.9102C215.796 14.9102 219.742 18.3542 219.742 23.9429C219.744 29.5571 215.506 33.3446 209.201 33.3446ZM209.387 18.0361C205.732 18.0361 203.481 20.4395 203.481 24.3981C203.414 25.884 203.893 27.3426 204.831 28.4981C205.361 29.1063 206.031 29.578 206.782 29.8732C207.534 30.1685 208.346 30.2788 209.149 30.1947C212.91 30.1947 215.088 27.8647 215.088 23.8326C215.16 23.0617 215.062 22.2842 214.804 21.5547C214.543 20.8252 214.128 20.1611 213.585 19.609C213.042 19.057 212.384 18.6301 211.659 18.3584C210.935 18.0867 210.159 17.9767 209.387 18.0361Z" fill="#A6A6A6"/>
<path d="M245.485 19.3548V25.8752C245.485 30.7486 242.438 33.3443 236.69 33.3443C234.788 33.3966 232.901 33.0071 231.176 32.2062C230.279 31.7399 229.52 31.0455 228.977 30.193C228.219 28.8125 227.887 27.238 228.024 25.6688V19.3548C228.022 18.776 227.96 18.1989 227.839 17.6328C227.74 17.2628 227.564 16.918 227.321 16.6211C227.079 16.3242 226.777 16.0822 226.435 15.9108V15.2803H234.037V15.9108C232.793 16.4933 232.369 17.3925 232.341 19.3534L232.287 25.6363C232.178 26.759 232.399 27.8892 232.923 28.888C233.414 29.3708 234.006 29.7379 234.657 29.9621C235.307 30.1865 236 30.2624 236.684 30.1845C237.708 30.2176 238.726 30.0093 239.654 29.5765C240.819 28.9941 241.191 28.0935 241.191 25.8682V19.3548C241.189 18.776 241.127 18.1989 241.005 17.6328C240.901 17.2655 240.723 16.9234 240.481 16.6273C240.239 16.3313 239.941 16.0875 239.601 15.9108V15.2803H247.2V15.9108C245.961 16.4155 245.485 17.3684 245.485 19.3548Z" fill="#A6A6A6"/>
<path d="M274.141 16.7068C273.641 17.4943 273.416 18.426 273.505 19.3548V31.307C273.505 31.9164 273.559 32.0493 273.904 32.3137V32.9442H266.856V32.3137C267.042 32.1016 267.122 31.997 267.122 31.8641C267.102 31.7621 267.066 31.6639 267.016 31.5728L266.856 31.307L259.491 18.6394L259.545 20.2285L259.597 21.8714V28.9036C259.601 29.4739 259.664 30.0423 259.782 30.6001C259.871 30.9667 260.04 31.3099 260.272 31.6069C260.505 31.9038 260.799 32.1477 261.134 32.3221V32.9527H254.115V32.3221C254.496 32.1432 254.824 31.8696 255.068 31.5276C255.567 30.7482 255.799 29.8278 255.73 28.905V19.3548C255.727 18.776 255.665 18.1989 255.545 17.6328C255.443 17.2604 255.263 16.9141 255.016 16.617C254.77 16.32 254.462 16.0792 254.115 15.9108V15.2803H262.882V15.9108C262.812 15.9531 262.756 16.0113 262.713 16.0805C262.672 16.1496 262.648 16.2277 262.644 16.3081C262.665 16.4263 262.701 16.5417 262.75 16.6517L262.883 16.9429L270.008 29.2698C269.929 28.4215 269.902 27.7853 269.85 27.3625C269.771 26.462 269.717 25.8003 269.717 25.4016V19.3548C269.714 18.776 269.652 18.1989 269.532 17.6328C269.428 17.2531 269.242 16.9013 268.986 16.6033C268.728 16.3053 268.409 16.0686 268.048 15.9108V15.2803H275.173V15.9108C274.766 16.0833 274.411 16.3574 274.141 16.7068Z" fill="#A6A6A6"/>
<path d="M13.5945 22.6181C12.1708 22.2092 10.7183 21.9081 9.24941 21.7175C8.27001 21.5846 7.55503 21.4786 7.10445 21.3994C6.59621 21.3388 6.11242 21.1473 5.70039 20.8438C5.56516 20.7304 5.45691 20.5885 5.38352 20.428C5.31014 20.2675 5.27347 20.0928 5.2762 19.9164C5.2762 18.7514 6.73258 18.036 9.17023 18.036C11.022 18.0814 12.8548 18.4211 14.5999 19.0426C15.1527 19.2533 15.3535 19.3918 15.5246 19.7227L16.134 19.8711L17.2199 15.354L16.6063 15.2028C16.3755 15.3693 16.0989 15.4601 15.8145 15.4629C15.6561 15.4629 15.444 15.436 15.1527 15.4106C14.9929 15.3837 14.597 15.3569 13.9876 15.2777L11.8963 15.0402C11.0987 14.9456 10.2959 14.9012 9.49261 14.9073C4.11959 14.9073 0.830734 17.0011 0.830734 20.4211C0.830734 23.308 3.00257 24.9452 7.79728 25.5107L9.8362 25.7483C11.9289 25.9858 12.8295 26.6488 12.8295 27.893C12.8295 29.4298 11.4524 30.196 8.67111 30.196C7.38654 30.2004 6.1057 30.0581 4.85343 29.7719C3.62379 29.4937 2.43819 29.0479 1.32986 28.4472C1.17291 28.368 0.935368 28.2365 0.622885 28.0782V28.0612L0.0078125 28.2026L1.1715 33.353L1.78657 33.2117C2.07514 33.0197 2.4061 32.9008 2.75088 32.8653C3.34899 32.8653 4.54095 33.1056 5.41477 33.1848C6.84569 33.2904 8.01126 33.3432 8.91148 33.3432C14.0229 33.3432 17.4942 30.9397 17.4942 27.4052C17.5026 26.2783 17.1178 25.1836 16.4061 24.3099C15.6943 23.4361 14.7 22.8378 13.5945 22.6181Z" fill="#A6A6A6"/>
<path d="M188.518 22.6181C187.095 22.2092 185.642 21.9081 184.175 21.7175C183.193 21.5846 182.479 21.4786 182.03 21.3994C181.521 21.3383 181.037 21.1469 180.626 20.8438C180.49 20.7304 180.383 20.5885 180.309 20.428C180.235 20.2675 180.199 20.0928 180.202 19.9164C180.202 18.7514 181.658 18.036 184.094 18.036C185.945 18.0814 187.779 18.4211 189.524 19.0426C190.078 19.2533 190.279 19.3918 190.45 19.7227L191.061 19.8711L192.145 15.354L191.532 15.2028C191.301 15.3692 191.025 15.4601 190.741 15.4629C190.581 15.4629 190.371 15.436 190.078 15.4106C189.92 15.3837 189.522 15.3569 188.913 15.2777L186.82 15.0402C186.023 14.9456 185.22 14.9012 184.417 14.9073C179.044 14.9073 175.755 17.0011 175.755 20.4211C175.755 23.308 177.927 24.9452 182.721 25.5107L184.76 25.7483C186.853 25.9858 187.753 26.6488 187.753 27.893C187.753 29.4298 186.375 30.196 183.595 30.196C182.31 30.2003 181.029 30.0581 179.777 29.7719C178.547 29.4935 177.362 29.0478 176.255 28.4472C176.097 28.368 175.859 28.2365 175.548 28.0782V28.0612L174.935 28.2026L176.1 33.3559L176.715 33.2145C177.002 33.0225 177.333 32.9036 177.678 32.8681C178.276 32.8681 179.468 33.1085 180.343 33.1876C181.772 33.2932 182.938 33.346 183.84 33.346C188.951 33.346 192.422 30.9425 192.422 27.408C192.431 26.28 192.046 25.1843 191.334 24.3099C190.621 23.4353 189.624 22.837 188.518 22.6181Z" fill="#A6A6A6"/>
<path d="M32.2385 16.6619C32.494 16.298 32.8545 16.0208 33.2721 15.8674V15.2368H25.6367V15.8674C25.9998 16.0209 26.3225 16.2562 26.5798 16.5548C26.8372 16.8535 27.022 17.2075 27.12 17.5894C27.2411 18.1555 27.3032 18.7326 27.3052 19.3114V28.8997C27.3834 29.8232 27.1504 30.7464 26.6435 31.5223C26.3978 31.8847 26.0462 32.1622 25.6367 32.3169V32.9474H33.2721V32.3211C32.9019 32.1787 32.5727 31.9469 32.314 31.6464C32.0552 31.346 31.8748 30.9862 31.7888 30.5991C31.6662 30.0409 31.6032 29.4712 31.6008 28.8997V19.3142C31.5121 18.3838 31.7365 17.4504 32.2385 16.6619Z" fill="#A6A6A6"/>
<path d="M52.7635 22.4596C51.7836 22.4596 51.5984 22.5925 51.3057 23.5708L50.5577 26.0125H51.1318C51.5156 25.6634 52.0115 25.4629 52.5302 25.4469H56.9474V26.4536C56.9474 27.9903 56.6561 28.7595 55.836 29.3151C54.7181 29.9783 53.4236 30.2828 52.1272 30.1874C48.1271 30.1874 46.1674 28.2816 46.1674 24.4135C46.1674 20.3615 48.5513 18.0302 52.7352 18.0302C54.9994 17.948 57.2321 18.578 59.1192 19.8313L59.7229 20.0123L61.0436 15.5617L60.4384 15.3821C60.0677 15.4694 59.6882 15.5141 59.3072 15.515C59.016 15.515 58.5395 15.4613 58.0347 15.409L55.7554 15.1149C54.6927 14.9755 53.6219 14.9047 52.55 14.9029C49.9057 14.7991 47.2947 15.5215 45.08 16.9698C43.9445 17.853 43.0298 18.9883 42.4088 20.2859C41.7877 21.5833 41.477 23.0077 41.5013 24.446C41.5013 29.9018 45.5 33.3444 51.8571 33.3444C53.13 33.3389 54.399 33.2058 55.6451 32.9471C56.3606 32.8142 56.9968 32.6559 57.5525 32.523C58.2359 32.2859 58.9506 32.152 59.6735 32.1257C59.928 32.1257 60.42 32.2473 60.42 32.5725V32.6643H61.0506V23.8366C61.0506 23.5086 61.1454 23.0901 61.4748 23.0901H61.7576V22.4596H52.7635Z" fill="#A6A6A6"/>
<path d="M297.311 16.0242C295.559 15.4981 293.736 15.2476 291.908 15.2819H282.255V15.9125H282.69C283.098 15.9125 283.631 16.5614 283.749 17.0039C283.871 17.5612 283.933 18.13 283.935 18.7005V29.5584C283.935 30.7757 283.424 32.3181 282.692 32.3181H282.255V32.9487H291.304C298.59 32.9487 302.695 29.7167 302.695 23.9442C302.781 22.2181 302.302 20.511 301.331 19.0818C300.359 17.6524 298.948 16.5789 297.311 16.0242ZM296.199 28.7638C294.743 29.692 293.019 30.1106 291.299 29.9543H288.227V18.3004H291.776C295.989 18.3004 298.028 20.2076 298.028 24.128C298.093 24.9883 297.962 25.8524 297.646 26.655C297.329 27.4578 296.834 28.1797 296.199 28.7638Z" fill="#A6A6A6"/>
</g>
<defs>
<clipPath id="clip0_230_596">
<rect width="304" height="41" fill="white"/>
</clipPath>
</defs>
</svg>
